<svg width="560" height="397" viewBox="0 0 560 397" fill="none" xmlns="http://www.w3.org/2000/svg">
<g clip-path="url(#clip0_900_2336)">
<path opacity="0.1" d="M186.177 396.777C213.448 396.777 235.556 393.223 235.556 388.839C235.556 384.455 213.448 380.902 186.177 380.902C158.905 380.902 136.797 384.455 136.797 388.839C136.797 393.223 158.905 396.777 186.177 396.777Z" fill="#4FA1C5"/>
<path opacity="0.1" d="M454.597 397C488.628 397 516.215 393.446 516.215 389.062C516.215 384.679 488.628 381.125 454.597 381.125C420.566 381.125 392.979 384.679 392.979 389.062C392.979 393.446 420.566 397 454.597 397Z" fill="#4FA1C5"/>
<path opacity="0.1" d="M7.01368 171.533H58.4457V241.693H10.779C10.6523 242.413 10.5307 243.138 10.3989 243.863H58.4457V300.446C58.3595 300.42 58.2835 300.39 58.2024 300.36C56.8443 299.822 55.4963 299.254 54.1483 298.645L53.2868 298.255C51.9354 297.616 50.584 296.939 49.2326 296.226C48.7613 295.977 48.29 295.719 47.8238 295.455C40.3215 291.249 33.506 285.919 27.6138 279.651C27.4415 279.483 27.2794 279.306 27.1071 279.144C26.2861 278.251 25.4803 277.348 24.6999 276.425L23.8384 275.411C22.9161 274.28 22.0242 273.118 21.1576 271.941C21.0309 271.769 20.9093 271.597 20.7775 271.434C17.2532 266.544 14.3269 261.248 12.0611 255.661C11.9901 255.493 11.9293 255.311 11.8635 255.153C11.1675 253.361 10.5509 251.552 10.0137 249.726C9.78063 248.961 9.55766 248.205 9.36508 247.409C9.29414 247.175 9.23332 246.947 9.17758 246.719C6.29913 235.474 5.95959 223.794 5.95959 212.194C5.95959 210.84 5.95959 209.481 5.95959 208.137C5.95959 203.445 6.01534 198.723 6.09642 194.006C6.09642 192.784 6.1471 191.567 6.17244 190.339C6.24338 187.225 6.34474 184.111 6.4765 180.997C6.50691 180.129 6.54745 179.267 6.59306 178.405C6.59306 177.908 6.6184 177.411 6.66907 176.914C6.7907 175.108 6.89205 173.318 7.01368 171.533Z" fill="#4FA1C5"/>
<path opacity="0.1" d="M58.4457 93.4147H30.2339C34.8199 86.2308 39.8306 79.3274 45.2393 72.7416C49.4303 67.5885 53.8544 62.5673 58.4457 57.7287V93.4147Z" fill="#4FA1C5"/>
<path opacity="0.1" d="M58.4457 95.5855V169.362H7.1759C7.1759 169.149 7.21138 168.931 7.22658 168.718C7.27219 168.134 7.3178 167.551 7.36847 166.973C7.42422 166.293 7.48503 165.609 7.55091 164.944C7.61679 164.28 7.68774 163.468 7.76376 162.733C7.83977 161.997 7.91072 161.252 7.99687 160.516C8.08302 159.781 8.15903 159.045 8.25025 158.315C8.34147 157.585 8.42256 156.844 8.51884 156.114C8.59486 155.505 8.67594 154.902 8.75702 154.293C8.87358 153.436 8.9952 152.574 9.12696 151.722C9.12696 151.595 9.16244 151.463 9.18271 151.341C10.1077 145.104 11.368 138.92 12.9581 132.819C14.6227 126.418 16.7482 120.146 19.3181 114.052C22.0494 107.678 25.2474 101.514 28.8859 95.6109L58.4457 95.5855Z" fill="#4FA1C5"/>
<path opacity="0.1" d="M70.7247 171.527V241.693H180.577V171.527H70.7247ZM70.7247 243.858V304.113C71.3531 304.245 71.9765 304.371 72.5947 304.478C73.4359 304.64 74.2721 304.787 75.1286 304.914C75.2907 304.939 75.458 304.965 75.6353 304.98C75.9698 305.036 76.3144 305.081 76.6489 305.127C77.4952 305.244 78.3364 305.34 79.1827 305.416C79.5831 305.457 79.9885 305.492 80.3939 305.523L81.3719 305.599C81.9041 305.639 82.4311 305.67 82.9531 305.685C83.2774 305.685 83.6017 305.715 83.9362 305.726C84.1896 305.726 84.443 305.726 84.7065 305.726C84.97 305.726 85.345 305.726 85.6643 305.726C86.1001 305.726 86.5359 305.726 86.9667 305.726H87.5495C87.9853 305.726 88.4211 305.726 88.8519 305.685H88.8823C89.1813 305.685 89.4853 305.685 89.7894 305.644C89.8738 305.649 89.9584 305.649 90.0428 305.644C90.2961 305.644 90.5495 305.644 90.7928 305.609H90.9701L92.6678 305.477C93.2253 305.426 93.7878 305.36 94.3554 305.3L95.5108 305.163C100.211 304.503 104.86 303.514 109.422 302.201C119.668 299.34 129.692 295.338 139.934 292.407C153.176 288.628 167.806 286.772 180.602 291.392V243.858H70.7247ZM180.577 93.4147V0.00507113C168.55 -0.12534 156.556 1.28253 144.885 4.19448C117.069 11.1887 92.1104 26.3588 70.7247 45.7336V93.4097H76.2384V95.5754H70.7247V169.362H180.577V95.5805H98.8757V93.4147H180.577ZM321.677 61.8623C314.795 61.6188 307.953 59.4379 301.766 56.0701C289.933 49.6288 280.481 39.6828 269.92 31.2887C247.977 13.8058 220.764 3.25618 192.846 0.639062V93.4147H349.666L350.056 93.0039L321.677 61.8623ZM335.963 59.3263L351.11 75.9622V54.9645C346.037 55.5934 341.593 57.0896 335.983 59.306L335.963 59.3263ZM351.11 319.075V243.858H318.834C318.748 243.539 318.661 243.214 318.56 242.89C318.656 243.214 318.737 243.539 318.829 243.858H192.866V298.255C194.062 299.142 195.243 300.075 196.414 301.024C197.675 302.038 198.922 303.108 200.174 304.158L201.436 305.203C202.039 305.71 202.647 306.218 203.26 306.694C204.476 307.682 205.704 308.655 206.944 309.616C207.557 310.123 208.186 310.579 208.809 311.056C218.705 318.628 229.144 325.462 240.041 331.501C242.484 332.854 244.949 334.174 247.435 335.462C249.092 336.309 250.759 337.151 252.432 337.968C254.945 339.195 257.479 340.379 260.033 341.518C283.581 352.097 308.481 359.357 334.022 363.089C339.694 363.928 345.388 364.587 351.105 365.067V319.07H351.612L351.11 319.075ZM192.866 95.5805V169.362H351.13V95.5805H192.866ZM192.866 171.527V241.693H351.13V171.527H192.866ZM363.414 54.8732V78.2953L382.747 57.0642C376.342 56.0296 369.897 55.2908 363.414 54.8478V54.8732ZM363.414 171.553V241.693H517.345V171.527L363.414 171.553ZM516.783 324.644L517.325 243.858H363.414V365.874C373.329 366.29 383.259 366.172 393.162 365.519H393.334C398.064 365.221 402.772 364.788 407.458 364.22H407.564C432.563 361.308 457.008 354.78 480.133 344.84M547.027 183.081C546.449 181.717 545.846 180.363 545.233 179.024C544.087 176.488 542.876 174.023 541.63 171.558H529.619V241.693H559.985C559.97 221.831 554.948 201.543 547.042 183.056L547.027 183.081ZM529.619 243.884V313.369C538.173 305.163 545.4 295.774 550.605 285.042C556.863 272.119 559.726 258.126 559.959 243.873L529.619 243.884ZM529.619 151.108V169.367H540.505C537.212 163.081 533.583 156.978 529.634 151.083L529.619 151.108ZM425.225 68.6384C424.424 68.3341 423.623 68.0247 422.818 67.7254C414.32 64.5845 405.636 61.9726 396.815 59.9045L367.23 92.4004L366.663 93.0039L367.043 93.4198H472.339C457.674 83.3168 441.864 74.9897 425.24 68.613L425.225 68.6384ZM475.425 95.6058H365.573L363.414 97.5839V169.362H382.337H382.367H517.366V134.594C505.154 119.812 491.059 106.696 475.441 95.5805L475.425 95.6058Z" fill="#4FA1C5"/>
<path opacity="0.1" d="M58.4457 132.798V169.362H7.1759C7.1759 169.149 7.21138 168.931 7.22658 168.718C7.27219 168.134 7.3178 167.551 7.36847 166.973C7.42422 166.293 7.48503 165.609 7.55091 164.944C7.61679 164.28 7.68774 163.468 7.76376 162.733C7.83977 161.997 7.91072 161.252 7.99687 160.516C8.08302 159.781 8.15903 159.045 8.25025 158.315C8.34147 157.585 8.42256 156.844 8.51884 156.114C8.59486 155.505 8.67594 154.902 8.75702 154.293C8.87358 153.436 8.9952 152.574 9.12696 151.722C9.12696 151.595 9.16244 151.463 9.18271 151.341C10.1077 145.104 11.368 138.92 12.9581 132.819L58.4457 132.798Z" fill="#4FA1C5"/>
<path opacity="0.1" d="M7.01368 171.533H58.4457V241.693H10.779C10.6523 242.413 10.5307 243.138 10.3989 243.863H58.4457V300.446C58.3595 300.42 58.2835 300.39 58.2024 300.36C56.8443 299.822 55.4963 299.254 54.1483 298.645L53.2868 298.255C51.9354 297.616 50.584 296.939 49.2326 296.226C48.7613 295.977 48.29 295.719 47.8238 295.455C40.3215 291.249 33.506 285.919 27.6138 279.651C27.4415 279.483 27.2794 279.306 27.1071 279.144C26.2861 278.251 25.4803 277.348 24.6999 276.425L23.8384 275.411C22.9161 274.28 22.0242 273.118 21.1576 271.941C21.0309 271.769 20.9093 271.597 20.7775 271.434C17.2532 266.544 14.3269 261.248 12.0611 255.661C11.9901 255.493 11.9293 255.311 11.8635 255.153C11.1675 253.361 10.5509 251.552 10.0137 249.726C9.78063 248.961 9.55766 248.205 9.36508 247.409C9.29414 247.175 9.23332 246.947 9.17758 246.719C6.29913 235.474 5.95959 223.794 5.95959 212.194C5.95959 210.84 5.95959 209.481 5.95959 208.137C5.95959 203.445 6.01534 198.723 6.09642 194.006C6.09642 192.784 6.1471 191.567 6.17244 190.339C6.24338 187.225 6.34474 184.111 6.4765 180.997C6.50691 180.129 6.54745 179.267 6.59306 178.405C6.59306 177.908 6.6184 177.411 6.66907 176.914C6.7907 175.108 6.89205 173.318 7.01368 171.533Z" fill="#4FA1C5"/>
<path opacity="0.1" d="M109.396 106.145V169.362H70.7247V106.145H76.2384V84.7418H98.8707V106.145H109.396Z" fill="#4FA1C5"/>
<path opacity="0.1" d="M109.396 171.527H70.7297V241.687H109.396V171.527Z" fill="#4FA1C5"/>
<path opacity="0.1" d="M70.7247 243.863H109.396V302.19C104.835 303.502 100.186 304.49 95.4855 305.147L94.33 305.289C93.7625 305.355 93.1999 305.411 92.6425 305.467C92.085 305.523 91.5073 305.563 90.9448 305.599H90.7674C90.5242 305.599 90.2607 305.629 90.0225 305.634H89.764C89.46 305.634 89.1559 305.665 88.8519 305.675C88.4211 305.7 87.9904 305.705 87.5495 305.71C87.362 305.71 87.1846 305.71 86.9971 305.71C86.5613 305.71 86.1305 305.71 85.6947 305.71H84.7369C84.4784 305.71 84.2301 305.71 83.9615 305.71L82.9835 305.675C82.4767 305.675 81.9294 305.619 81.4024 305.584L80.4294 305.513L79.2182 305.401C78.3668 305.325 77.5205 305.229 76.6843 305.112L75.6708 304.97L75.164 304.899C74.3177 304.767 73.4816 304.625 72.6302 304.463C72.0069 304.356 71.3886 304.224 70.7602 304.098L70.7247 243.863Z" fill="#4FA1C5"/>
<path opacity="0.1" d="M351.13 98.6794H319.244V169.357H351.13V98.6794Z" fill="#4FA1C5"/>
<path opacity="0.1" d="M351.135 171.527V241.693H192.866V211.428H277.167V229.282H319.244V171.527H351.135Z" fill="#4FA1C5"/>
<path opacity="0.1" d="M351.637 319.09H351.13V365.118C345.42 364.634 339.728 363.977 334.052 363.145C308.499 359.401 283.588 352.126 260.033 341.528C253.232 338.465 246.57 335.121 240.046 331.496C229.149 325.454 218.709 318.621 208.809 311.051C206.322 309.144 203.868 307.193 201.446 305.198C199.768 303.813 198.101 302.393 196.413 301.014C195.243 300.065 194.062 299.132 192.866 298.239V243.863H318.824C318.737 243.539 318.651 243.214 318.56 242.895C318.656 243.214 318.748 243.539 318.834 243.863H351.13V319.06C351.302 319.065 351.47 319.08 351.637 319.09Z" fill="#4FA1C5"/>
<path opacity="0.1" d="M434.291 93.4147H413.513V86.9531H422.828V67.7051C423.635 67.9993 424.439 68.3019 425.24 68.613V86.9531H434.291V93.4147Z" fill="#4FA1C5"/>
<path opacity="0.1" d="M484.35 169.362H382.347C382.347 169.362 382.347 169.362 382.383 169.387L382.337 169.362H363.414V98.6845H368.776V150.925H393.278V119.987H413.518V95.5855H434.296V120.007H454.536V150.946H484.35V169.362Z" fill="#4FA1C5"/>
<path opacity="0.1" d="M363.414 171.527V241.693H484.35V171.527H363.414ZM517.178 324.284L517.345 268.746H484.35V243.894H363.414V365.874C373.329 366.29 383.259 366.172 393.162 365.519H393.334C398.064 365.221 402.772 364.788 407.457 364.22H407.564C432.563 361.308 457.008 354.78 480.133 344.84" fill="#4FA1C5"/>
<path opacity="0.1" d="M531.768 243.863H559.98C559.731 258.11 556.873 272.104 550.62 285.027C545.415 295.764 538.184 305.152 529.639 313.354V268.721H531.768V243.863Z" fill="#4FA1C5"/>
<path opacity="0.1" d="M559.995 241.693H531.768V183.056H547.042C554.947 201.543 559.97 221.831 559.995 241.693Z" fill="#4FA1C5"/>
<path opacity="0.1" d="M351.135 118.328H334.052V140.487H351.135V118.328Z" fill="#4FA1C5"/>
<path opacity="0.1" d="M351.135 164.259H334.052V169.362H351.135V164.259Z" fill="#4FA1C5"/>
<path opacity="0.1" d="M351.135 171.527H334.052V186.414H351.135V171.527Z" fill="#4FA1C5"/>
<path opacity="0.1" d="M351.135 210.191H334.052V232.35H351.135V210.191Z" fill="#4FA1C5"/>
<path opacity="0.1" d="M351.135 256.122H334.052V278.281H351.135V256.122Z" fill="#4FA1C5"/>
<path opacity="0.1" d="M351.13 319.06C351.302 319.06 351.47 319.06 351.637 319.09H351.13V324.238H334.052V302.054H351.13V319.06Z" fill="#4FA1C5"/>
<path opacity="0.1" d="M351.13 347.975V365.093C345.421 364.609 339.728 363.951 334.052 363.12V347.975H351.13Z" fill="#4FA1C5"/>
<path opacity="0.1" d="M266.079 240.064H192.866V241.693H266.079V240.064Z" fill="#4FA1C5"/>
<path opacity="0.1" d="M266.079 243.858H192.866V250.097H266.079V243.858Z" fill="#4FA1C5"/>
<path opacity="0.1" d="M266.079 270.547H192.866V280.579H266.079V270.547Z" fill="#4FA1C5"/>
<path opacity="0.1" d="M266.074 301.029V311.061H208.809C206.323 309.161 203.866 307.21 201.441 305.208C199.763 303.824 198.101 302.404 196.408 301.029H266.074Z" fill="#4FA1C5"/>
<path opacity="0.1" d="M266.074 331.506V341.528H260.028C253.234 338.462 246.574 335.116 240.046 331.491L266.074 331.506Z" fill="#4FA1C5"/>
<path opacity="0.1" d="M407.579 178.329H393.167V192.754H407.579V178.329Z" fill="#4FA1C5"/>
<path opacity="0.1" d="M95.5209 111.121H81.1084V125.545H95.5209V111.121Z" fill="#4FA1C5"/>
<path opacity="0.1" d="M95.5209 144.626H81.1084V159.051H95.5209V144.626Z" fill="#4FA1C5"/>
<path opacity="0.1" d="M95.5209 178.131H81.1084V192.556H95.5209V178.131Z" fill="#4FA1C5"/>
<path opacity="0.1" d="M95.5209 211.631H81.1084V226.056H95.5209V211.631Z" fill="#4FA1C5"/>
<path opacity="0.1" d="M95.5209 245.136H81.1084V259.561H95.5209V245.136Z" fill="#4FA1C5"/>
<path opacity="0.1" d="M95.5209 278.642H81.1084V293.066H95.5209V278.642Z" fill="#4FA1C5"/>
<path opacity="0.1" d="M462.599 178.329H448.187V192.754H462.599V178.329Z" fill="#4FA1C5"/>
<path opacity="0.1" d="M407.579 213.909H393.167V228.333H407.579V213.909Z" fill="#4FA1C5"/>
<path opacity="0.1" d="M462.599 213.909H448.187V228.333H462.599V213.909Z" fill="#4FA1C5"/>
<path opacity="0.1" d="M407.579 249.483H393.167V263.908H407.579V249.483Z" fill="#4FA1C5"/>
<path opacity="0.1" d="M462.599 249.483H448.187V263.908H462.599V249.483Z" fill="#4FA1C5"/>
<path opacity="0.1" d="M407.579 285.063H393.167V299.487H407.579V285.063Z" fill="#4FA1C5"/>
<path opacity="0.1" d="M462.599 285.063H448.187V299.487H462.599V285.063Z" fill="#4FA1C5"/>
<path opacity="0.1" d="M407.579 320.642H393.167V335.067H407.579V320.642Z" fill="#4FA1C5"/>
<path opacity="0.1" d="M462.599 320.642H448.187V335.067H462.599V320.642Z" fill="#4FA1C5"/>
<path opacity="0.1" d="M393.167 365.519V356.217H407.574V364.195L393.167 365.519Z" fill="#4FA1C5"/>
<path opacity="0.1" d="M9.12183 151.331V159.583H58.4457V151.331H9.12183ZM14.0375 159.066H10.0137V151.838H14.0679L14.0375 159.066ZM18.9481 159.066H14.8939V151.838H18.9481V159.066ZM23.8485 159.066H19.7944V151.838H23.8485V159.066ZM28.7591 159.066H24.71V151.838H28.7642L28.7591 159.066ZM33.6646 159.066H29.6105V151.838H33.6646V159.066ZM38.5752 159.066H34.5211V151.838H38.5752V159.066ZM43.4858 159.066H39.4317V151.838H43.4858V159.066ZM48.3914 159.066H44.3372V151.838H48.3914V159.066ZM53.2969 159.066H49.2427V151.838H53.2969V159.066ZM58.2024 159.066H54.1483V151.838H58.2024V159.066Z" fill="#4FA1C5"/>
<path opacity="0.1" d="M9.12183 175.342V183.594H58.4457V175.342H9.12183ZM14.0375 183.071H10.0137V175.864H14.0679L14.0375 183.071ZM18.9481 183.071H14.8939V175.864H18.9481V183.071ZM23.8485 183.071H19.7944V175.864H23.8485V183.071ZM28.7591 183.071H24.71V175.864H28.7642L28.7591 183.071ZM33.6646 183.071H29.6105V175.864H33.6646V183.071ZM38.5752 183.071H34.5211V175.864H38.5752V183.071ZM43.4858 183.071H39.4317V175.864H43.4858V183.071ZM48.3914 183.071H44.3372V175.864H48.3914V183.071ZM53.2969 183.071H49.2427V175.864H53.2969V183.071ZM58.2024 183.071H54.1483V175.864H58.2024V183.071Z" fill="#4FA1C5"/>
<path opacity="0.1" d="M9.12183 199.362V207.629H58.4457V199.362H9.12183ZM14.0375 207.092H10.0137V199.88H14.0679L14.0375 207.092ZM18.9481 207.092H14.8939V199.88H18.9481V207.092ZM23.8485 207.092H19.7944V199.88H23.8485V207.092ZM28.7591 207.092H24.71V199.88H28.7642L28.7591 207.092ZM33.6646 207.092H29.6105V199.88H33.6646V207.092ZM38.5752 207.092H34.5211V199.88H38.5752V207.092ZM43.4858 207.092H39.4317V199.88H43.4858V207.092ZM48.3914 207.092H44.3372V199.88H48.3914V207.092ZM53.2969 207.092H49.2427V199.88H53.2969V207.092ZM58.2024 207.092H54.1483V199.88H58.2024V207.092Z" fill="#4FA1C5"/>
<path opacity="0.1" d="M9.12183 223.383V231.625H58.4457V223.383H9.12183ZM14.0375 231.112H10.0137V223.895H14.0679L14.0375 231.112ZM18.9481 231.112H14.8939V223.895H18.9481V231.112ZM23.8485 231.112H19.7944V223.895H23.8485V231.112ZM28.7591 231.112H24.71V223.895H28.7642L28.7591 231.112ZM33.6646 231.112H29.6105V223.895H33.6646V231.112ZM38.5752 231.112H34.5211V223.895H38.5752V231.112ZM43.4858 231.112H39.4317V223.895H43.4858V231.112ZM48.3914 231.112H44.3372V223.895H48.3914V231.112ZM53.2969 231.112H49.2427V223.895H53.2969V231.112ZM58.2024 231.112H54.1483V223.895H58.2024V231.112Z" fill="#4FA1C5"/>
<path opacity="0.1" d="M9.33472 247.398C9.53236 248.174 9.75533 248.95 9.98845 249.716V247.916H14.0426V255.128H11.8736C11.9395 255.295 12.0054 255.478 12.0713 255.635H58.4457V247.398H9.33472ZM18.9633 255.128H14.9092V247.916H18.9633V255.128ZM23.8638 255.128H19.8096V247.916H23.8638V255.128ZM28.7744 255.128H24.7101V247.916H28.7642L28.7744 255.128ZM33.6799 255.128H29.6257V247.916H33.6799V255.128ZM38.5905 255.128H34.5363V247.916H38.5905V255.128ZM43.5011 255.128H39.4469V247.916H43.5011V255.128ZM48.4066 255.128H44.3524V247.916H48.4066V255.128ZM53.3121 255.128H49.258V247.916H53.3121V255.128ZM58.2176 255.128H54.1635V247.916H58.2176V255.128Z" fill="#4FA1C5"/>
<path opacity="0.1" d="M20.7877 271.419C20.9144 271.581 21.036 271.764 21.1678 271.926H23.8486V275.39C24.1375 275.735 24.4213 276.08 24.7152 276.405V271.906H28.7693V279.144H27.1274C27.2896 279.311 27.4467 279.489 27.6342 279.651H58.4609V271.419H20.7877ZM33.6647 279.144H29.6106V271.936H33.6647V279.144ZM38.5753 279.144H34.5212V271.936H38.5753V279.144ZM43.4859 279.144H39.4317V271.936H43.4859V279.144ZM48.3914 279.144H44.3373V271.936H48.3914V279.144ZM53.2969 279.144H49.2428V271.936H53.2969V279.144ZM58.2025 279.144H54.1483V271.936H58.2025V279.144Z" fill="#4FA1C5"/>
<path opacity="0.1" d="M47.844 295.435C48.3052 295.698 48.7764 295.942 49.2528 296.206V295.952H53.307V298.234L54.1685 298.635V295.952H58.2226V300.339C58.3004 300.378 58.3819 300.408 58.4659 300.43V295.435H47.844Z" fill="#4FA1C5"/>
<path opacity="0.1" d="M318.56 242.89C318.656 243.214 318.737 243.539 318.829 243.858C318.748 243.539 318.661 243.214 318.56 242.89ZM76.2585 93.3995V95.5652H98.8959V93.3995H76.2585ZM318.56 242.89C318.656 243.214 318.737 243.539 318.829 243.858C318.748 243.539 318.661 243.214 318.56 242.89ZM318.56 242.89C318.656 243.214 318.737 243.539 318.829 243.858C318.748 243.539 318.661 243.214 318.56 242.89Z" fill="#4FA1C5"/>
<path d="M233.924 192.566C233.924 192.566 231.928 192.287 231.928 189.376C231.928 186.464 230.499 181.027 230.499 181.027C230.499 181.002 229.262 171.558 227.554 170.057C225.847 168.555 223.652 159.74 223.652 159.74C223.652 159.74 223.277 154.958 222.512 153.928C221.747 152.898 220.713 150.378 219.188 146.782C217.662 143.186 211.302 140.695 211.302 140.695C211.302 140.695 199.804 134.021 196.545 131.845C196.249 131.666 195.972 131.457 195.719 131.221C195.152 130.475 192.679 130.46 192.679 130.46C192.42 128.827 192.172 126.95 192.091 125.251C192.091 125.069 192.091 124.886 192.065 124.703C195.699 122.554 198.436 119.165 199.773 115.158C199.834 114.965 199.885 114.762 199.941 114.57C200.158 114.498 200.359 114.382 200.529 114.228C200.699 114.074 200.835 113.887 200.929 113.677C201.223 113.023 201.228 112.257 201.593 111.648C202.018 110.928 202.829 110.543 203.468 110C205.079 108.631 205.495 106.323 205.419 104.223C205.368 102.524 205.094 100.81 205.201 99.1207L205.231 98.6946C205.262 98.441 205.297 98.1874 205.343 97.944C205.591 96.6861 206.133 95.4993 206.437 94.2516C206.741 93.0039 206.772 91.599 206.062 90.5238C205.023 88.9464 202.86 88.6319 200.959 88.4696C198.805 88.287 196.88 88.5254 195.501 86.735C194.856 85.7993 194.13 84.9218 193.332 84.1128C193.049 83.8491 190.292 82.1652 190.292 82.0536C187.601 80.8064 184.551 80.5723 181.702 81.3943C180.273 81.8102 178.925 82.4898 177.476 82.8296C174.349 83.5701 170.751 82.7688 168.095 84.5592C166.615 85.5736 165.729 87.1864 164.898 88.7587C164.222 90.0538 163.536 91.3471 162.84 92.6387C161.72 94.7639 160.58 96.9245 160.109 99.2779C160.009 99.79 159.948 100.309 159.926 100.83V100.855C159.926 101.043 159.926 101.231 159.926 101.418V101.657C159.926 101.834 159.926 102.007 159.957 102.164C159.987 102.321 159.982 102.372 159.997 102.478C160.012 102.585 160.038 102.823 160.068 102.985C160.098 103.148 160.159 103.432 160.22 103.655C160.245 103.751 160.281 103.843 160.311 103.934C160.362 104.106 160.423 104.274 160.489 104.441C160.524 104.527 160.56 104.619 160.6 104.705C160.676 104.882 160.767 105.055 160.859 105.212C160.899 105.283 160.93 105.349 160.97 105.415C161.111 105.651 161.267 105.878 161.436 106.095C162.521 107.449 164.117 108.311 165.298 109.579C165.298 109.63 165.298 109.68 165.298 109.726C165.298 109.868 165.298 110.005 165.298 110.147C165.36 112.975 166.113 115.745 167.489 118.215C168.865 120.686 170.823 122.783 173.193 124.323C173.193 124.516 173.219 124.714 173.229 124.906C173.328 126.412 173.309 127.923 173.173 129.425C172.967 129.182 172.708 128.988 172.417 128.859C172.126 128.729 171.809 128.666 171.491 128.675C171.273 128.664 171.055 128.683 170.842 128.731L170.796 128.695V128.741C169.681 129.015 168.308 130.176 166.996 133.478C166.996 133.478 163.002 137.982 159.962 137.794C156.921 137.606 149.223 142.481 149.223 142.481C149.223 142.481 141.713 147.36 140.101 152.33C139.201 155.149 138.121 157.907 136.868 160.587L127.584 179.734L125.871 194.924C125.871 194.924 126.819 201.68 126.631 202.71C126.444 203.739 130.528 213.026 130.528 213.026C130.528 213.026 144.024 236.758 149.537 237.975L149.933 237.696C150.169 237.819 150.419 237.913 150.678 237.975L151.813 237.173C151.881 238.067 151.852 238.965 151.727 239.851C150.966 242.195 152.01 257.487 153.338 260.484C154.666 263.482 154.195 302.784 154.195 302.784L154.007 306.253C154.007 306.253 154.007 306.365 154.053 306.557L154.007 307.379L154.144 307.45C154.286 308.55 154.24 309.667 154.007 310.752C153.531 312.273 153.338 316.574 153.338 316.574C153.338 316.574 149.542 340.859 151.341 345.738C153.14 350.617 154.671 355.963 154.671 355.963C154.671 355.963 156.571 362.049 154.762 363.089C152.953 364.129 147.809 365.874 148.868 368.41C149.831 370.753 153.485 377.032 154.027 377.95L153.982 378.432L153.237 386.511C153.357 387.578 153.646 388.619 154.093 389.595C154.909 391.355 156.495 393.181 159.511 392.983C160.017 392.948 160.605 392.887 161.173 392.811C166.691 392.07 173.487 389.605 173.487 389.605C173.134 389.381 172.811 389.113 172.524 388.809C172.253 388.546 172.038 388.23 171.893 387.882C171.747 387.533 171.674 387.158 171.678 386.78C171.759 385.309 169.007 378.3 168.323 376.575C168.217 376.327 168.161 376.185 168.161 376.185C168.161 376.185 174.435 369.622 173.391 363.804C173.391 363.804 166.448 359.747 168.734 357.52C171.019 355.294 175.104 348.898 175.104 348.898C175.104 348.898 175.291 324.984 175.104 321.413C174.908 318.935 175.026 316.442 175.453 313.993C175.53 313.623 175.621 313.262 175.717 312.907C178.878 313.38 182.069 313.622 185.265 313.633C186.43 313.633 187.616 313.633 188.812 313.562C188.812 313.9 188.827 314.265 188.858 314.657C189.121 320.581 189.613 330.969 190.013 334.828C190.581 340.362 193.717 355.273 193.717 355.273C193.717 355.273 187.733 359.118 194.761 368.592C194.761 368.592 194.761 372.026 194.295 372.523C193.797 374.148 193.396 375.801 193.094 377.473C192.8 379.258 192.679 381.064 193.155 382.002C194.295 384.244 201.137 384.062 201.137 384.062L201.304 384.031C202.595 383.897 203.901 384.022 205.144 384.397C206.387 384.772 207.543 385.391 208.546 386.217C211.145 388.307 221.012 387.389 226.353 386.724C228.446 386.461 229.845 386.217 229.845 386.217C229.913 385.98 229.937 385.732 229.916 385.487C229.86 384.173 228.831 381.292 221.858 378.721C221.858 378.721 215.301 374.308 215.392 370.464H215.255H214.495C215.047 370.433 215.402 370.464 215.402 370.464C215.402 370.464 212.833 361.081 213.882 360.32C214.931 359.559 211.789 349.162 211.789 349.162C211.789 349.162 209.99 331.714 209.894 330.492C209.898 329.443 210.056 328.4 210.365 327.398L209.894 317.832C209.894 317.832 209.802 314.652 209.894 313.618C209.878 312.719 209.805 311.823 209.676 310.934C209.63 310.579 209.584 310.209 209.534 309.844C211.992 309.22 213.588 308.642 213.588 308.642L213.304 275.345C215.392 271.287 215.777 262.386 215.767 256.071C215.767 252.014 215.585 249.011 215.585 249.011L218.438 244.35C218.438 244.35 219.096 238.771 218.052 237.549C217.591 236.996 217.799 236.423 218.179 235.951C218.377 235.794 218.585 235.652 218.803 235.525C218.803 235.525 218.772 235.479 218.737 235.413C218.936 235.247 219.148 235.096 219.37 234.962C219.37 234.962 218.357 233.39 219.264 232.725C220.115 233.304 220.875 233.74 221.453 234.095C221.412 234.465 221.372 234.678 221.372 234.678L221.615 234.171C222.173 234.485 222.512 234.678 222.512 234.678C222.512 234.678 226.982 225.767 226.885 224.453C226.789 223.139 229.926 217.606 229.926 217.606C229.926 217.606 230.306 214.7 232.019 213.482C233.732 212.265 233.347 203.445 233.347 203.445C233.347 203.445 233.823 198.85 234.963 196.973C236.104 195.097 233.924 192.566 233.924 192.566ZM148.402 188.655L148.488 190.781C147.982 189.964 147.617 189.376 147.617 189.376L148.402 188.655Z" fill="url(#paint0_linear_900_2336)"/>
<path d="M222.755 230.828L221.661 235.495C221.661 235.495 212.894 231.016 211.313 225.325C209.731 219.635 213.958 217.474 213.958 217.474L222.127 220.938L222.755 230.828Z" fill="white"/>
<path opacity="0.1" d="M222.755 230.828L221.661 235.495C221.661 235.495 212.894 231.016 211.313 225.325C209.731 219.635 213.958 217.474 213.958 217.474L222.127 220.938L222.755 230.828Z" fill="black"/>
<path d="M173.553 389.636C173.553 389.636 165.445 392.618 159.87 392.993C156.911 393.191 155.355 391.375 154.554 389.625C154.117 388.653 153.835 387.617 153.718 386.557L154.443 378.518L154.828 374.237L166.671 371.159L168.349 376.291L168.506 376.682C169.18 378.396 171.881 385.37 171.8 386.826C171.796 387.198 171.868 387.568 172.011 387.912C172.154 388.256 172.365 388.568 172.631 388.829C172.903 389.136 173.213 389.407 173.553 389.636Z" fill="white"/>
<path d="M228.938 385.548C228.958 385.792 228.934 386.037 228.867 386.273C228.867 386.273 211.525 389.169 207.978 386.273C206.978 385.427 205.812 384.799 204.555 384.431C203.299 384.062 201.979 383.961 200.68 384.133C200.68 384.133 193.971 384.315 192.851 382.104C192.385 381.176 192.506 379.375 192.795 377.6C193.09 375.937 193.482 374.292 193.971 372.675L194.239 372.462L195.836 371.179L214.525 370.626H214.667C214.576 374.45 221.012 378.837 221.012 378.837C227.848 381.373 228.857 384.239 228.938 385.548Z" fill="white"/>
<path opacity="0.1" d="M228.938 385.548C228.956 385.792 228.93 386.038 228.862 386.273C228.862 386.273 211.525 389.169 207.978 386.273C206.978 385.427 205.813 384.8 204.558 384.432C203.302 384.063 201.983 383.961 200.686 384.133C200.686 384.133 193.971 384.315 192.856 382.104C192.39 381.171 192.506 379.375 192.795 377.6C195.38 377.859 199.459 378.503 201.061 380.039C203.483 382.378 207.588 384.711 210.106 384.893C212.078 385.02 223.87 385.395 228.938 385.548Z" fill="black"/>
<path opacity="0.1" d="M173.553 389.636C173.553 389.636 165.445 392.618 159.87 392.993C156.911 393.191 155.355 391.375 154.559 389.62C156.622 390.315 159.485 391.046 160.99 390.376C162.774 389.585 169.099 389.073 172.646 388.854C172.916 389.15 173.221 389.413 173.553 389.636Z" fill="black"/>
<path d="M185.584 149.302C178.895 146.7 170.29 138.103 172.438 134.087C172.916 133.073 173.199 131.979 173.274 130.861C173.413 129.343 173.433 127.817 173.335 126.296C173.185 123.805 172.885 121.326 172.438 118.871C172.438 118.871 193.322 119.342 192.106 122.421C191.751 123.324 191.696 124.891 191.792 126.646C191.888 128.401 192.141 130.384 192.405 132.063C192.77 134.365 193.135 136.12 193.135 136.12C193.135 136.12 191.858 137.911 191.108 138.007C190.358 138.103 195.182 153.01 185.584 149.302Z" fill="#CF6F80"/>
<path opacity="0.1" d="M168.491 376.682L168.333 376.854C162.09 369.297 154.539 378.716 154.539 378.716L154.428 378.518L154.813 374.237L166.656 371.159L168.333 376.291L168.491 376.682Z" fill="black"/>
<path opacity="0.1" d="M214.672 371.159C214.672 371.159 210.111 371.062 207.679 373.213C205.247 375.363 193.489 373.679 193.996 373.213C194.146 372.981 194.237 372.717 194.26 372.442L195.856 371.159L214.546 370.606C214.617 370.946 214.672 371.159 214.672 371.159Z" fill="black"/>
<path d="M176.259 311.812C175.92 312.652 175.662 313.524 175.489 314.414C175.066 316.851 174.949 319.332 175.139 321.799C175.327 325.349 175.139 349.141 175.139 349.141C175.139 349.141 171.131 355.486 168.896 357.723C166.661 359.96 173.457 363.977 173.457 363.977C174.47 369.759 168.328 376.291 168.328 376.291C162.085 368.734 154.534 378.158 154.534 378.158C154.534 378.158 150.429 371.057 149.406 368.521C148.382 365.985 153.414 364.23 155.183 363.201C156.951 362.171 155.097 356.1 155.097 356.1C155.097 356.1 153.602 350.78 151.828 345.926C150.054 341.072 153.784 316.909 153.784 316.909C153.784 316.909 153.977 312.618 154.438 311.122C154.67 310.042 154.717 308.931 154.575 307.836C154.544 307.465 154.509 307.156 154.483 306.948C154.458 306.74 154.438 306.644 154.438 306.644L154.509 306.522L157.043 301.795C157.043 301.795 177.475 308.835 176.259 311.812Z" fill="#4FA1C5"/>
<path d="M214.672 370.601C214.672 370.601 210.111 370.504 207.679 372.629C205.246 374.755 193.489 373.096 193.996 372.629C194.503 372.163 194.462 368.709 194.462 368.709C187.565 359.285 193.449 355.461 193.449 355.461C193.449 355.461 190.368 340.626 189.81 335.123C189.42 331.278 188.939 320.946 188.68 315.048C188.569 312.512 188.503 310.767 188.503 310.767L194.138 309.631L194.863 309.484L208.454 306.755C208.454 306.755 208.829 309.291 209.083 311.366C209.209 312.251 209.28 313.144 209.296 314.038C209.204 315.053 209.296 318.228 209.296 318.228L209.757 327.748C209.455 328.747 209.3 329.783 209.296 330.827C209.387 332.039 211.155 349.395 211.155 349.395C211.155 349.395 214.231 359.752 213.182 360.497C212.133 361.243 214.672 370.601 214.672 370.601Z" fill="#4FA1C5"/>
<path opacity="0.1" d="M192.106 122.421C191.751 123.324 191.695 124.891 191.792 126.646C188.994 128.332 185.779 129.194 182.514 129.133C179.249 129.072 176.068 128.09 173.335 126.301C173.185 123.809 172.885 121.327 172.438 118.871C172.438 118.871 193.322 119.332 192.106 122.421Z" fill="black"/>
<path d="M200.179 111.212C200.183 113.04 199.895 114.856 199.327 116.593C198.058 120.485 195.454 123.803 191.977 125.96C188.5 128.116 184.373 128.973 180.325 128.379C176.278 127.785 172.571 125.778 169.859 122.712C167.147 119.647 165.605 115.721 165.506 111.628C165.506 111.486 165.506 111.354 165.506 111.212C165.466 108.908 165.886 106.62 166.739 104.48C167.593 102.34 168.864 100.391 170.478 98.7482C172.092 97.105 174.017 95.7999 176.14 94.909C178.263 94.0181 180.543 93.5593 182.845 93.5593C185.147 93.5593 187.426 94.0181 189.55 94.909C191.673 95.7999 193.598 97.105 195.212 98.7482C196.826 100.391 198.096 102.34 198.95 104.48C199.804 106.62 200.223 108.908 200.184 111.212H200.179Z" fill="#CF6F80"/>
<path opacity="0.1" d="M185.584 149.302C178.895 146.7 170.29 138.103 172.438 134.087C172.916 133.073 173.199 131.979 173.274 130.861L182.432 138.393L188.097 143.044L192.405 132.068C192.77 134.371 193.135 136.125 193.135 136.125C193.135 136.125 191.858 137.916 191.108 138.012C190.358 138.109 195.182 153.01 185.584 149.302Z" fill="black"/>
<path d="M209.265 182.589L201.618 311.163L191.645 311.817L165.82 237.265L170.056 148.755L170.948 130.054L182.432 139.493L188.102 144.144L192.537 132.849L200.782 140.041L209.265 182.589Z" fill="#4FA1C5"/>
<path opacity="0.1" d="M176.259 311.812C175.92 312.652 175.662 313.524 175.489 314.414C168.232 313.292 161.184 311.089 154.58 307.876L154.443 307.805L154.488 306.989L154.514 306.562L157.048 301.835C157.048 301.835 177.476 308.835 176.259 311.812Z" fill="black"/>
<path opacity="0.1" d="M194.255 314.434C192.399 314.75 190.528 314.963 188.65 315.073C188.538 312.537 188.472 310.792 188.472 310.792L194.108 309.656L194.255 314.434Z" fill="black"/>
<path opacity="0.1" d="M209.052 311.391C205.449 312.329 199.885 313.384 194.903 312.725L194.832 309.509L208.424 306.781C208.424 306.781 208.799 309.291 209.052 311.391Z" fill="black"/>
<path opacity="0.1" d="M194.812 313.313C174.035 316.864 155.005 306.684 155.005 306.684L155.188 303.235C155.188 303.235 155.659 264.136 154.352 261.138C153.044 258.141 152.026 242.94 152.766 240.607C153.505 238.274 150.064 203.288 150.064 203.288L149.507 189.086L129.104 180.814L138.226 161.784C139.458 159.116 140.518 156.372 141.399 153.568C142.985 148.628 150.348 143.774 150.348 143.774C150.348 143.774 157.899 138.925 160.884 139.108C163.869 139.29 167.781 134.817 167.781 134.817C170.67 127.447 173.285 130.785 173.285 130.785C173.285 131.135 173.285 130.785 173.143 131.875C172.129 139.965 189.532 165.527 189.78 165.979L191.437 206.382L193.114 257.512L194.812 313.313Z" fill="black"/>
<path d="M194.255 313.313C173.477 316.864 154.443 306.684 154.443 306.684L154.63 303.235C154.63 303.235 155.102 264.136 153.789 261.138C152.477 258.141 151.463 242.94 152.208 240.607C152.953 238.274 149.507 203.288 149.507 203.288L148.944 189.087L128.532 180.784L137.654 161.754C138.883 159.085 139.943 156.34 140.826 153.537C142.407 148.597 149.776 143.743 149.776 143.743C149.776 143.743 157.326 138.895 160.306 139.077C163.286 139.26 167.203 134.786 167.203 134.786C170.097 127.417 173.285 130.754 173.285 130.754C173.285 131.104 172.98 131.261 173.143 131.845C175.372 139.691 188.974 165.497 189.222 165.948L190.9 206.351L192.577 257.481L194.255 313.313Z" fill="white"/>
<path opacity="0.1" d="M188.655 167.1C186.42 166.166 174.582 152.64 174.582 152.64V149.561C174.151 148.547 171.592 149.165 169.514 149.875L170.406 131.175L171.42 132.017C173.639 139.858 188.396 166.648 188.655 167.1Z" fill="black"/>
<path d="M189.217 165.979C186.977 165.046 175.139 151.519 175.139 151.519V148.44C174.709 147.426 172.149 148.044 170.072 148.755L170.969 130.054L171.982 130.896C174.207 138.737 188.969 165.532 189.217 165.979Z" fill="white"/>
<path opacity="0.1" d="M155.005 233.441C155.284 233.441 169.453 231.949 169.453 231.949C169.453 231.949 178.033 248.834 177.471 252.942C176.908 257.05 175.889 260.687 172.438 260.043C168.987 259.399 153.865 260.55 153.865 260.55L155.005 233.441Z" fill="black"/>
<path d="M154.443 232.32C154.722 232.32 168.891 230.828 168.891 230.828C168.891 230.828 177.465 247.718 176.908 251.821C176.351 255.924 175.322 259.566 171.876 258.922C168.43 258.278 153.303 259.429 153.303 259.429L154.443 232.32Z" fill="white"/>
<path d="M165.121 224.392C165.121 224.392 178.124 231.386 178.403 233.522C178.682 235.657 171.785 232.588 170.295 232.218C169.314 231.982 168.316 231.826 167.31 231.752L157.372 232.02L165.121 224.392Z" fill="#CF6F80"/>
<path opacity="0.1" d="M185.026 167.972C185.782 167.972 186.395 167.359 186.395 166.603C186.395 165.846 185.782 165.233 185.026 165.233C184.271 165.233 183.658 165.846 183.658 166.603C183.658 167.359 184.271 167.972 185.026 167.972Z" fill="black"/>
<path d="M185.026 167.414C185.782 167.414 186.395 166.801 186.395 166.045C186.395 165.288 185.782 164.675 185.026 164.675C184.271 164.675 183.658 165.288 183.658 166.045C183.658 166.801 184.271 167.414 185.026 167.414Z" fill="#3F3D56"/>
<path opacity="0.1" d="M187.545 227.253C188.301 227.253 188.913 226.64 188.913 225.883C188.913 225.127 188.301 224.514 187.545 224.514C186.789 224.514 186.177 225.127 186.177 225.883C186.177 226.64 186.789 227.253 187.545 227.253Z" fill="black"/>
<path d="M187.545 226.69C188.301 226.69 188.913 226.077 188.913 225.32C188.913 224.564 188.301 223.951 187.545 223.951C186.789 223.951 186.177 224.564 186.177 225.32C186.177 226.077 186.789 226.69 187.545 226.69Z" fill="#3F3D56"/>
<path opacity="0.1" d="M186.39 197.612C187.145 197.612 187.758 196.999 187.758 196.243C187.758 195.487 187.145 194.874 186.39 194.874C185.634 194.874 185.021 195.487 185.021 196.243C185.021 196.999 185.634 197.612 186.39 197.612Z" fill="black"/>
<path d="M186.39 197.054C187.145 197.054 187.758 196.441 187.758 195.685C187.758 194.929 187.145 194.316 186.39 194.316C185.634 194.316 185.021 194.929 185.021 195.685C185.021 196.441 185.634 197.054 186.39 197.054Z" fill="#3F3D56"/>
<path d="M217.931 231.468C217.931 231.468 218.863 232.867 217.931 233.522C216.998 234.176 218.022 235.758 218.022 235.758C218.022 235.758 215.696 237.123 216.72 238.35C217.743 239.578 217.095 245.121 217.095 245.121L214.297 249.757C214.297 249.757 214.465 252.744 214.475 256.781C214.475 263.081 214.105 271.936 212.057 275.974L212.341 309.098C212.341 309.098 202.545 312.679 194.346 311.589L193.13 258.435C193.13 258.435 194.903 228.292 195.557 222.51C195.94 219.509 196.095 216.482 196.023 213.457C196.023 213.457 195.745 204.409 194.807 200.209C194.807 200.209 193.794 182.016 193.692 176.98C193.647 174.571 193.773 167.541 193.915 160.856C194.072 153.548 194.25 146.655 194.25 146.655L192.4 132.007C192.4 132.007 194.25 131.819 194.807 132.565C195.057 132.798 195.328 133.007 195.618 133.189C198.811 135.349 210.091 141.994 210.091 141.994C210.091 141.994 216.335 144.479 217.83 148.039C219.325 151.6 220.363 154.126 221.088 155.14C221.813 156.154 222.208 160.922 222.208 160.922C222.208 160.922 224.357 169.697 226.034 171.183C227.712 172.669 228.938 182.123 228.938 182.123L214.115 193.788C214.115 193.788 212.813 213.193 212.534 213.944C212.255 214.695 217.931 231.468 217.931 231.468Z" fill="white"/>
<path d="M218.493 231.468C218.493 231.468 219.421 232.867 218.493 233.522C217.566 234.176 218.58 235.758 218.58 235.758C218.58 235.758 216.269 237.138 217.282 238.365C218.296 239.593 217.657 245.136 217.657 245.136L214.86 249.772C214.86 249.772 215.027 252.759 215.042 256.797C215.042 263.096 214.672 271.952 212.625 275.989L212.904 309.114C212.904 309.114 203.093 312.694 194.903 311.604L193.692 258.45C193.692 258.45 195.466 228.308 196.12 222.526C196.503 219.524 196.657 216.497 196.581 213.472C196.581 213.472 196.302 204.424 195.37 200.224C195.37 200.224 194.356 182.031 194.25 176.995C194.204 174.586 194.336 167.556 194.473 160.871C194.63 153.563 194.807 146.67 194.807 146.67L192.364 131.824C192.364 131.824 194.807 131.824 195.37 132.58C195.617 132.816 195.889 133.025 196.18 133.204C199.373 135.365 210.659 142.009 210.659 142.009C210.659 142.009 216.897 144.494 218.392 148.055C219.887 151.615 220.926 154.141 221.656 155.155C222.385 156.17 222.771 160.937 222.771 160.937C222.771 160.937 224.919 169.712 226.597 171.198C228.274 172.684 229.485 182.118 229.485 182.118L214.662 193.783C214.662 193.783 213.36 213.188 213.076 213.939C212.792 214.69 218.493 231.468 218.493 231.468Z" fill="white"/>
<path opacity="0.1" d="M200.741 150.976L202.079 154.881L195.035 161.982C195.192 154.679 195.37 147.781 195.37 147.781L192.927 132.935C192.927 132.935 195.37 132.935 195.932 133.691C196.179 133.926 196.451 134.134 196.743 134.31L202.733 151.605L200.741 150.976Z" fill="black"/>
<path d="M200.179 149.855L201.522 153.761L194.478 160.861C194.635 153.553 194.812 146.66 194.812 146.66L192.364 131.814C192.364 131.814 194.812 131.814 195.37 132.57C195.618 132.805 195.89 133.014 196.18 133.194L202.175 150.484L200.179 149.855Z" fill="white"/>
<path opacity="0.1" d="M200.179 111.212C200.183 113.04 199.895 114.856 199.327 116.593C199.232 116.608 199.134 116.604 199.04 116.58C198.946 116.557 198.858 116.515 198.78 116.457C198.648 111.892 196.403 107.606 193.642 103.959C192.866 102.858 191.926 101.883 190.854 101.068C189.771 100.254 188.423 99.8723 187.074 99.9981C185.554 100.206 184.211 101.241 182.675 101.373C180.648 101.54 178.834 100.135 176.822 100.064C176.004 100.072 175.197 100.254 174.455 100.599C173.713 100.943 173.053 101.442 172.519 102.062C171.462 103.314 170.677 104.772 170.214 106.343C169.417 108.726 168.983 111.216 168.926 113.728C168.901 115.148 168.764 116.928 167.447 117.446C167.546 116.401 167.427 115.347 167.098 114.351C166.769 113.355 166.238 112.438 165.536 111.658L165.506 111.628C165.506 111.486 165.506 111.354 165.506 111.212C165.466 108.908 165.886 106.62 166.739 104.48C167.593 102.34 168.864 100.391 170.478 98.7482C172.092 97.105 174.017 95.7999 176.14 94.909C178.263 94.0181 180.543 93.5593 182.845 93.5593C185.147 93.5593 187.426 94.0181 189.55 94.909C191.673 95.7999 193.598 97.105 195.212 98.7482C196.826 100.391 198.096 102.34 198.95 104.48C199.804 106.62 200.223 108.908 200.184 111.212H200.179Z" fill="black"/>
<path d="M190.023 83.6564C187.39 82.4166 184.395 82.1821 181.601 82.997C180.197 83.4129 178.874 84.0875 177.45 84.4273C174.41 85.1627 170.862 84.3664 168.252 86.1467C166.803 87.1611 165.931 88.7638 165.121 90.3209L163.093 94.1857C161.989 96.3007 160.874 98.4512 160.413 100.779C159.952 103.107 160.23 105.714 161.705 107.586C162.779 108.95 164.365 109.807 165.531 111.09C166.229 111.871 166.759 112.787 167.087 113.782C167.415 114.777 167.534 115.829 167.437 116.872C168.759 116.365 168.886 114.58 168.916 113.16C168.973 110.647 169.407 108.158 170.203 105.775C170.666 104.203 171.451 102.745 172.509 101.494C173.044 100.875 173.704 100.376 174.445 100.032C175.187 99.687 175.994 99.5044 176.812 99.496C178.839 99.567 180.658 100.967 182.665 100.799C184.185 100.673 185.533 99.6329 187.064 99.43C188.413 99.3023 189.762 99.684 190.844 100.5C191.916 101.314 192.854 102.289 193.626 103.391C196.393 107.038 198.638 111.314 198.77 115.888C199.343 116.309 200.169 115.762 200.452 115.112C200.736 114.463 200.746 113.702 201.106 113.084C201.522 112.369 202.317 111.988 202.941 111.451C204.522 110.086 204.917 107.789 204.856 105.704C204.796 103.619 204.39 101.504 204.785 99.4554C205.024 98.1976 205.561 97.0209 205.855 95.7783C206.149 94.5356 206.184 93.1409 205.49 92.0707C204.476 90.4984 202.343 90.189 200.483 90.0419C198.37 89.8593 196.479 90.0926 195.131 88.3124C194.499 87.3834 193.787 86.5111 193.003 85.7054C192.734 85.4417 190.023 83.7679 190.023 83.6564Z" fill="#512E4E"/>
<path opacity="0.1" d="M134.942 190.613L129.647 180.814L127.969 195.934C127.969 195.934 128.902 202.649 128.714 203.678C128.527 204.708 132.535 213.939 132.535 213.939C132.535 213.939 145.777 237.544 151.184 238.761L169.453 225.696L164.609 219.538C164.609 219.538 162.931 218.884 162.511 219.538C162.511 219.538 153.515 204.049 152.583 202.928C151.651 201.807 151.833 199.57 151.833 199.57C151.833 199.57 150.434 198.079 150.901 196.679C151.367 195.279 148.199 190.425 148.199 190.425L151.088 187.722L134.942 190.613Z" fill="black"/>
<path d="M129.925 179.698L128.527 180.814L126.849 195.934C126.849 195.934 127.782 202.649 127.594 203.678C127.407 204.708 131.42 213.939 131.42 213.939C131.42 213.939 144.657 237.544 150.064 238.761L168.339 225.696L163.489 219.538C163.489 219.538 161.811 218.884 161.391 219.538C161.391 219.538 152.396 204.049 151.463 202.928C150.531 201.807 150.718 199.57 150.718 199.57C150.718 199.57 149.32 198.079 149.786 196.679C150.252 195.279 147.08 190.425 147.08 190.425L149.968 187.722L129.925 179.698Z" fill="white"/>
<path opacity="0.1" d="M216.72 238.928C217.733 240.161 217.095 245.694 217.095 245.694L214.297 250.33C214.297 250.33 214.465 253.322 214.475 257.355L209.772 258.826C209.347 258.958 208.896 258.988 208.458 258.911C208.019 258.834 207.605 258.653 207.251 258.384C206.896 258.114 206.611 257.764 206.419 257.361C206.228 256.959 206.135 256.517 206.149 256.071L206.959 229.895L217.931 234.095C216.998 234.744 218.022 236.337 218.022 236.337C218.022 236.337 215.696 237.696 216.72 238.928Z" fill="black"/>
<path d="M217.282 238.365C218.296 239.598 217.657 245.136 217.657 245.136L214.86 249.772C214.86 249.772 215.027 252.759 215.042 256.797L210.253 258.293C209.837 258.422 209.396 258.45 208.967 258.375C208.537 258.299 208.132 258.122 207.785 257.858C207.438 257.594 207.159 257.251 206.972 256.857C206.784 256.464 206.693 256.031 206.706 255.595L207.522 229.337L218.498 233.537C217.561 234.186 218.585 235.774 218.585 235.774C218.585 235.774 216.269 237.138 217.282 238.365Z" fill="white"/>
<path d="M220.916 225.888C220.916 225.888 220.171 230.651 218.306 230.93C216.441 231.209 215.605 238.634 213.745 238.37C211.885 238.107 213.117 231.468 213.182 230.179C213.248 228.891 211.155 223.555 212.721 222.343C214.287 221.131 219.243 222.343 219.243 222.343L220.916 225.888Z" fill="#CF6F80"/>
<path opacity="0.1" d="M224.884 189.213L228.401 182.113C228.401 182.113 229.799 187.524 229.799 190.415C229.799 193.306 231.756 193.59 231.756 193.59C231.756 193.59 233.899 196.126 232.769 197.973C231.639 199.819 231.183 204.414 231.183 204.414C231.183 204.414 231.553 213.183 229.875 214.395C228.198 215.608 227.848 218.504 227.848 218.504C227.848 218.504 224.767 224.007 224.864 225.315C224.96 226.624 220.576 235.484 220.576 235.484C220.576 235.484 222.72 224.473 210.228 219.716C210.228 219.716 210.132 215.978 211.064 214.953C211.997 213.929 213.451 213.462 212.539 208.284C211.627 203.105 212.275 196.918 212.275 195.675C212.275 194.432 215.073 186.682 215.073 186.682L224.884 189.213Z" fill="black"/>
<path d="M226.404 181.098L229.475 182.113C229.475 182.113 230.879 187.524 230.879 190.415C230.879 193.306 232.835 193.59 232.835 193.59C232.835 193.59 234.979 196.126 233.849 197.973C232.718 199.819 232.267 204.414 232.267 204.414C232.267 204.414 232.637 213.183 230.96 214.395C229.283 215.608 228.908 218.504 228.908 218.504C228.908 218.504 225.831 224.007 225.928 225.315C226.024 226.624 221.635 235.484 221.635 235.484C221.635 235.484 223.784 224.473 211.287 219.716C211.287 219.716 211.196 215.978 212.128 214.953C213.061 213.929 214.515 213.462 213.603 208.284C212.691 203.105 213.34 196.918 213.34 195.675C213.34 194.432 216.137 186.682 216.137 186.682L226.404 181.098Z" fill="white"/>
<path opacity="0.1" d="M158.573 365.143C158.573 365.143 163.469 362.065 166.681 364.301C169.894 366.538 158.573 365.143 158.573 365.143Z" fill="black"/>
<path opacity="0.1" d="M196.611 355.623C196.611 355.623 200.944 355.065 204.583 358.986C208.221 362.906 196.611 355.623 196.611 355.623Z" fill="black"/>
<g opacity="0.1">
<path d="M202.951 110.34C202.327 110.877 201.527 111.263 201.111 111.978C200.756 112.592 200.746 113.347 200.463 114.007C200.179 114.666 199.353 115.204 198.78 114.788C198.648 110.223 196.398 105.937 193.636 102.286C192.864 101.183 191.926 100.208 190.854 99.3945C189.77 98.5784 188.42 98.1968 187.069 98.3244C185.548 98.5323 184.21 99.567 182.675 99.6938C180.648 99.8662 178.829 98.4613 176.817 98.3903C175.999 98.3984 175.193 98.5814 174.452 98.9269C173.71 99.2725 173.052 99.7726 172.519 100.394C171.461 101.643 170.676 103.099 170.213 104.669C169.417 107.052 168.983 109.542 168.926 112.054C168.896 113.469 168.764 115.234 167.457 115.762C167.487 116.136 167.487 116.513 167.457 116.888C168.774 116.38 168.906 114.595 168.936 113.175C168.993 110.663 169.427 108.173 170.224 105.79C170.686 104.218 171.472 102.76 172.529 101.51C173.063 100.89 173.722 100.391 174.463 100.047C175.204 99.7023 176.01 99.5197 176.827 99.5112C178.854 99.5822 180.678 100.982 182.685 100.815C184.205 100.688 185.553 99.6481 187.079 99.4453C188.43 99.3177 189.78 99.6993 190.864 100.515C191.936 101.329 192.874 102.304 193.646 103.406C196.408 107.053 198.658 111.329 198.79 115.904C199.363 116.325 200.189 115.777 200.473 115.128C200.756 114.478 200.767 113.718 201.121 113.099C201.537 112.384 202.338 112.003 202.961 111.466C204.542 110.101 204.937 107.804 204.876 105.719C204.876 105.653 204.876 105.587 204.876 105.527C204.78 107.332 204.299 109.173 202.951 110.34Z" fill="black"/>
<path d="M165.541 109.98C164.376 108.696 162.784 107.839 161.715 106.48C160.815 105.277 160.3 103.828 160.24 102.326C160.081 104.203 160.605 106.075 161.715 107.596C162.784 108.96 164.376 109.817 165.541 111.101C166.66 112.356 167.332 113.947 167.452 115.625C167.529 114.604 167.4 113.577 167.072 112.607C166.743 111.637 166.223 110.743 165.541 109.98Z" fill="black"/>
<path d="M205.865 94.6675C205.566 95.9101 205.034 97.0919 204.79 98.3447C204.646 99.1818 204.594 100.032 204.633 100.881C204.65 100.397 204.703 99.9158 204.79 99.4402C205.034 98.1824 205.566 97.0057 205.865 95.7631C206.039 95.0777 206.096 94.3676 206.032 93.6633C206 94.0016 205.945 94.3372 205.865 94.6675Z" fill="black"/>
</g>
<path opacity="0.1" d="M67.2635 385.766C94.5351 385.766 116.643 382.212 116.643 377.828C116.643 373.444 94.5351 369.891 67.2635 369.891C39.9919 369.891 17.8839 373.444 17.8839 377.828C17.8839 382.212 39.9919 385.766 67.2635 385.766Z" fill="#4FA1C5"/>
<path d="M68.8547 225.772H65.6772V297.372H68.8547V225.772Z" fill="#535461"/>
<path d="M88.8214 297.154L88.6238 300.38L88.34 304.945L88.2234 306.841L87.9447 311.406L87.8231 313.303L87.5393 317.868L84.3365 369.637C84.1973 371.864 83.2153 373.955 81.5903 375.483C79.9653 377.012 77.8196 377.863 75.5897 377.864H58.9372C56.7079 377.863 54.5627 377.011 52.9385 375.483C51.3144 373.954 50.3334 371.864 50.1955 369.637L47.0079 317.832L46.7241 313.268L46.6076 311.371L46.3238 306.806L46.2072 304.909L45.9234 300.344L45.7207 297.119C45.6855 296.498 45.7774 295.876 45.9908 295.292C46.2042 294.708 46.5346 294.174 46.9616 293.722C47.3887 293.271 47.9035 292.911 48.4744 292.666C49.0453 292.42 49.6603 292.294 50.2816 292.295H84.3416C84.9606 292.3 85.5719 292.433 86.1378 292.684C86.7038 292.935 87.2123 293.299 87.6321 293.754C88.0519 294.21 88.374 294.746 88.5785 295.331C88.7831 295.916 88.8657 296.536 88.8214 297.154Z" fill="#3F3D56"/>
<path d="M88.6237 300.38L88.3399 304.929H46.1869L45.9031 300.38H88.6237Z" fill="#9D9CB5"/>
<path d="M88.2234 306.826L87.9447 311.381H46.5873L46.3035 306.826H88.2234Z" fill="#9D9CB5"/>
<path d="M87.8231 313.283L87.5444 317.832H46.9876L46.7039 313.283H87.8231Z" fill="#9D9CB5"/>
<path d="M41.0533 252.607C59.5555 266.007 67.2786 286.965 67.2786 286.965C67.2786 286.965 44.9808 286.199 26.4736 272.799C7.96638 259.399 0.258423 238.447 0.258423 238.447C0.258423 238.447 22.5461 239.207 41.0533 252.607Z" fill="#4FA1C5"/>
<path d="M0.243286 238.447C0.243286 238.447 23.3925 251.304 30.8167 261.95C38.2408 272.596 67.2787 286.965 67.2787 286.965" stroke="#535461" stroke-width="2" stroke-miterlimit="10"/>
<path d="M52.9979 225.615C63.0674 232.903 67.2786 244.31 67.2786 244.31C67.2786 244.31 55.1415 243.894 45.0669 236.605C34.9924 229.317 30.7913 217.905 30.7913 217.905C30.7913 217.905 42.9233 218.321 52.9979 225.615Z" fill="#4FA1C5"/>
<path d="M30.7913 217.905C30.7913 217.905 43.3895 224.904 47.4285 230.697C51.4674 236.489 67.2786 244.31 67.2786 244.31" stroke="#535461" stroke-width="2" stroke-miterlimit="10"/>
<path d="M81.8989 243.731C70.3294 256.457 67.8817 273.088 67.8817 273.088C67.8817 273.088 84.1946 269.081 95.754 256.35C107.313 243.62 109.771 226.994 109.771 226.994C109.771 226.994 93.4685 231.006 81.8989 243.731Z" fill="#4FA1C5"/>
<path d="M109.781 226.999C109.781 226.999 94.7101 240.044 90.8789 249.032C87.0477 258.019 67.8817 273.088 67.8817 273.088" stroke="#535461" stroke-width="2" stroke-miterlimit="10"/>
<path d="M506.602 239.253C506.602 239.253 498.235 197.592 501.438 192.409C501.438 192.409 501.554 187.59 501.362 181.448C501.362 181.215 501.362 180.982 501.362 180.743C501.925 181.119 502.513 181.458 503.12 181.758C506.071 183.275 509.459 183.713 512.698 182.995L510.164 180.17C509.556 179.495 508.923 178.765 508.791 177.872C508.659 176.98 509.024 176.184 509.338 175.387C511.746 169.301 511.872 161.647 507.235 157.001C503.318 153.096 502.365 148.055 498.113 144.489C495.007 141.877 493.299 138.048 491.688 134.345C490.324 131.216 488.951 128.061 488.171 124.744C487.562 122.152 487.319 119.469 486.483 116.938C485.647 114.407 484.081 111.948 481.633 110.817C480.762 110.416 479.794 110.188 478.998 109.655C477.954 108.95 477.326 107.804 476.571 106.8C472.734 101.728 459.888 104.715 453.807 106.774C452.153 107.293 450.622 108.142 449.306 109.27L449.362 109.178C449.408 109.102 449.464 109.026 449.514 108.95C448.849 109.489 448.274 110.131 447.812 110.852C446.925 112.257 446.555 113.895 445.815 115.417C444.923 117.217 439.962 122.244 442.095 124.267C442.245 124.403 442.416 124.513 442.602 124.592C443.403 124.925 444.285 125.014 445.136 124.845L445.045 125.064C444.316 126.849 443.942 128.76 443.945 130.688C443.945 139.022 450.812 145.777 459.29 145.777C460.884 145.779 462.468 145.534 463.988 145.052C464.023 145.245 464.053 145.438 464.089 145.63C464.089 145.706 464.114 145.782 464.124 145.858L463.856 146.234C463.842 146.211 463.827 146.189 463.81 146.168L455.854 157.296C454.638 158.153 447.634 163.225 447.239 167.029C446.823 171.193 446.408 176.067 446.408 176.067L446.352 177.112C446.004 177.402 445.598 177.614 445.16 177.733C444.723 177.851 444.265 177.873 443.818 177.796C441.335 177.391 441.335 186.926 441.335 186.926C441.335 186.926 439.683 188.447 438.548 187.129C437.413 185.81 434.413 190.278 434.413 190.278L415.611 191.09L415.181 191.115L414.167 187.976C414.058 187.645 413.823 187.37 413.513 187.211C413.202 187.053 412.842 187.023 412.51 187.129C412.431 187.155 412.355 187.187 412.282 187.225L412.211 187.266L412.079 187.357L412.013 187.418C411.977 187.451 411.943 187.486 411.912 187.524L411.851 187.595L411.821 187.626C411.704 187.788 411.626 187.975 411.595 188.172C411.563 188.369 411.578 188.571 411.638 188.762L412.51 191.455C408.882 192.185 405.172 194.245 408.197 199.915L392.863 197.08L397.824 201.249L423.436 206.539C423.096 207.148 423.319 208.03 424.379 209.273C428.939 214.634 437.25 216.089 440.595 216.465C441.478 218.442 442.582 220.314 443.884 222.044L443.595 227.385C443.595 227.385 435.127 268.092 433.576 270.156C434.359 269.268 435.076 268.324 435.72 267.331C433.262 275.695 429.826 287.142 428.924 288.856C427.475 291.595 426.132 302.677 427.784 303.387C428.291 303.606 429.74 303.499 431.808 303.342V304.26L431.717 339.048C431.717 339.048 432.132 360.386 430.992 362.42C429.852 364.453 429.548 368.719 429.548 368.719C429.548 368.719 424.987 377.133 421.373 380.516C421.349 380.543 421.322 380.566 421.292 380.587L421.181 379.796C421.181 379.796 416.838 385.284 407.229 384.974C407.229 384.974 401.447 388.738 410.022 388.941C418.596 389.144 429.548 388.636 429.548 388.636C429.548 388.636 437.195 376.971 443.6 378.493V387.333H445.561V378.35C446.471 377.751 447.249 376.973 447.85 376.064C448.45 375.155 448.859 374.133 449.053 373.06C449.221 371.955 449.098 370.825 448.696 369.782C448.295 368.738 447.628 367.818 446.763 367.111C446.374 366.759 446.062 366.331 445.846 365.852C445.631 365.374 445.517 364.856 445.511 364.332L445.44 364.393C445.44 364.215 445.394 364.032 445.374 363.845C444.811 359.28 444.107 349.862 446.595 342.893C450.006 333.337 451.04 320.028 448.556 312.106C447.755 309.574 447.097 306.998 446.585 304.392C446.524 304.062 446.469 303.748 446.418 303.453C448.115 303.683 449.796 304.022 451.45 304.468C457.202 306.055 469.785 306.349 480.529 306.263C480.554 306.557 480.584 306.867 480.62 307.176C480.811 309.327 481.212 311.453 481.816 313.526C483.164 317.584 483.782 335.472 483.782 335.472C483.782 335.472 485.52 350.181 484.573 356.166C484.066 359.493 483.559 362.836 483.27 366.193V366.259C483.27 366.259 480.422 374.374 478.339 378.782C478.289 378.893 478.233 379.005 478.182 379.111C477.627 379.162 477.08 379.283 476.555 379.471C476.555 379.471 473.763 385.051 470.981 385.974C468.199 386.897 469.121 389.935 475.42 388.819C481.719 387.703 491.231 386.79 491.231 386.79L491.642 381.1L493.578 378.675L493.071 384.351L495.134 383.945L494.86 377.042L498.027 373.076C498.027 373.076 501.853 369.667 496.167 362.962V363.109C496.107 363.013 496.051 362.912 495.985 362.815V362.785C495.042 361.324 494.292 358.6 495.666 353.767C498.149 345.033 499.593 337.106 499.593 337.106C499.593 337.106 505.137 315.869 498.473 305.822H498.767C498.084 304.408 497.602 302.906 497.333 301.359C497.299 301.176 497.269 300.988 497.242 300.796C502.173 300.512 507.012 299.619 510.96 297.692C510.945 297.671 508.568 247.277 506.602 239.253ZM444.001 204.104V204.206L442.987 204.257L444.001 204.104ZM440.524 204.586C440.358 204.623 440.202 204.698 440.068 204.804C439.632 205.421 439.359 206.138 439.272 206.889L437.691 206.534C437.691 206.534 436.582 206.296 434.985 206.027L434.23 205.266C436.308 205.093 438.467 204.84 440.524 204.586Z" fill="url(#paint1_linear_900_2336)"/>
<path d="M492.838 377.113L492.235 384.3L494.257 383.894L493.953 376.099L492.838 377.113Z" fill="#1D2366"/>
<path d="M446.707 342.989C444.269 349.938 444.958 359.316 445.506 363.87C445.708 365.554 445.896 366.579 445.896 366.579C445.896 366.579 442.252 374.886 441.948 375.201C441.644 375.515 431.225 381.881 431.225 381.881L423.943 386.136C423.943 386.136 416.554 382.895 420.096 381.779C420.82 381.488 421.472 381.044 422.007 380.476C425.554 377.103 430.009 368.719 430.009 368.719C430.009 368.719 430.313 364.464 431.428 362.44C432.542 360.416 432.137 339.15 432.137 339.15L432.223 304.483V299.964L446.083 300.065C446.171 301.6 446.371 303.125 446.681 304.63C447.179 307.228 447.823 309.795 448.612 312.319C451.055 320.226 450.041 333.469 446.707 342.989Z" fill="#FFB0B1"/>
<path opacity="0.1" d="M445.896 366.579C445.896 366.579 442.252 374.886 441.948 375.201C441.644 375.515 431.225 381.881 431.225 381.881L423.943 386.136C423.943 386.136 416.554 382.895 420.096 381.779C420.82 381.488 421.472 381.044 422.007 380.476L422.321 382.692L424.748 382.591L445.526 363.88C445.708 365.554 445.896 366.579 445.896 366.579Z" fill="black"/>
<path d="M445.643 364.352L424.748 383.189L422.321 383.291L421.814 379.74C421.814 379.74 417.568 385.208 408.132 384.903C408.132 384.903 402.466 388.652 410.863 388.854C419.26 389.057 429.983 388.55 429.983 388.55C429.983 388.55 437.473 376.885 443.742 378.406V387.216H445.668V378.325C446.563 377.722 447.327 376.944 447.914 376.037C448.501 375.131 448.899 374.115 449.084 373.05C449.25 371.954 449.132 370.833 448.741 369.796C448.349 368.758 447.698 367.839 446.849 367.126C446.469 366.77 446.167 366.341 445.959 365.864C445.752 365.387 445.644 364.872 445.643 364.352Z" fill="#1D2366"/>
<path d="M494.764 353.823C493.416 358.641 494.15 361.355 495.073 362.81V362.841C496.256 364.638 497.078 366.648 497.495 368.76L497.576 369.216L488.069 383.088L482.91 385.116C482.91 385.116 474.614 382.281 476.13 381.47C476.51 381.272 477.103 380.217 477.782 378.761C479.809 374.374 482.606 366.279 482.606 366.279V366.213C482.9 362.871 483.366 359.539 483.883 356.222C484.811 350.252 483.108 335.599 483.108 335.599C483.108 335.599 482.5 317.782 481.182 313.729C480.587 311.669 480.192 309.556 480.001 307.42C479.728 304.884 479.667 302.794 479.667 302.794C479.667 302.794 485.13 295.186 495.144 303.403C495.944 304.058 496.649 304.823 497.237 305.675C504.154 315.525 498.585 337.222 498.585 337.222C498.585 337.222 497.191 345.114 494.764 353.823Z" fill="#FFB0B1"/>
<path opacity="0.1" d="M497.591 369.216L488.084 383.088L482.925 385.116C482.925 385.116 474.63 382.281 476.145 381.47C476.525 381.272 477.118 380.217 477.797 378.761C481.309 378.731 483.128 382.078 483.128 382.078L487.578 381.368C487.578 381.368 493.446 369.825 494.764 369.12C496.081 368.415 494.966 363.85 494.966 363.85V362.688C495.002 362.729 495.032 362.775 495.073 362.815V362.846C496.256 364.643 497.078 366.653 497.495 368.765L497.591 369.216Z" fill="black"/>
<path d="M483.432 382.378C483.432 382.378 480.898 377.722 476.044 379.441C476.044 379.441 473.312 385.02 470.581 385.923C467.849 386.826 468.761 389.869 474.934 388.758C481.106 387.647 490.41 386.729 490.41 386.729L490.816 381.054L497.09 373.055C497.09 373.055 500.83 369.662 495.265 362.983V364.144C495.265 364.144 496.38 368.709 495.063 369.414C493.745 370.119 487.897 381.668 487.897 381.668L483.432 382.378Z" fill="#1D2366"/>
<path opacity="0.1" d="M446.098 300.055C446.186 301.589 446.386 303.115 446.696 304.62C440.99 303.783 435.695 304.199 432.223 304.473V299.954L446.098 300.055Z" fill="black"/>
<path opacity="0.1" d="M497.799 306.938C497.799 306.938 489.691 307.333 480.022 307.415C479.748 304.879 479.687 302.789 479.687 302.789C479.687 302.789 485.15 295.181 495.164 303.398C495.965 304.053 496.669 304.818 497.257 305.67C497.414 306.102 497.595 306.526 497.799 306.938Z" fill="black"/>
<path d="M497.799 306.025C497.799 306.025 462.285 307.744 451.46 304.706C440.636 301.668 429.907 304.3 428.291 303.595C426.674 302.89 427.987 291.849 429.406 289.115C430.825 286.381 438.609 258.734 438.609 258.734L446.099 219.65L453.989 217.474L454.547 217.317L468.295 213.523L478.37 210.739C478.37 210.739 498.402 289.014 496.684 294.785C496.061 296.996 495.96 299.321 496.39 301.577C496.653 303.117 497.127 304.614 497.799 306.025Z" fill="#1D2366"/>
<path d="M419.99 192.921C419.99 192.921 412.895 200.529 418.267 204.769C423.639 209.009 427.171 205.175 427.171 205.175L419.99 192.921Z" fill="#C7DAF5"/>
<path opacity="0.1" d="M419.99 192.921C419.99 192.921 412.895 200.529 418.267 204.769C423.639 209.009 427.171 205.175 427.171 205.175L419.99 192.921Z" fill="black"/>
<path d="M477.311 142.902C477.311 142.902 476.479 143.693 475.228 144.859C473.444 146.528 470.804 148.968 468.462 151.012C465.219 153.837 462.543 155.911 463.501 154.141C464.459 152.371 464.276 149.287 463.8 146.401C463.765 146.208 463.734 146.016 463.699 145.828C463.304 143.709 462.781 141.615 462.133 139.559C462.133 139.559 467.373 132.783 470.272 130.11C471.351 129.096 472.106 128.68 472.152 129.385C472.202 130.333 472.912 132.428 473.794 134.65C473.819 134.721 473.844 134.786 473.875 134.857C474.463 136.379 475.126 137.941 475.709 139.29C476.601 141.36 477.311 142.902 477.311 142.902Z" fill="#FFB0B1"/>
<path opacity="0.1" d="M473.875 134.857C473.382 137.508 472.187 139.978 470.415 142.009C468.643 144.039 466.358 145.556 463.8 146.401C463.397 144.086 462.84 141.8 462.133 139.559C462.133 139.559 472 126.803 472.152 129.385C472.187 130.364 472.957 132.535 473.875 134.857Z" fill="black"/>
<path opacity="0.1" d="M462.817 149.809L464.094 148.009C464.094 148.009 464.94 153.172 468.052 150.895C471.163 148.618 471.315 168.033 471.315 168.033L467.976 218.007L443.844 216.561L444.528 192.414L447.259 180.241L454.014 162.545L458.033 156.697L462.817 149.809Z" fill="black"/>
<path d="M471.315 168.342L468.275 213.528L467.956 218.316L454.501 217.51L453.994 217.479L443.859 216.871L444.543 192.718L447.274 180.545L454.03 162.849L458.048 157.001L462.832 150.088L464.109 148.293C464.109 148.293 464.955 153.456 468.067 151.179L468.133 151.133C471.174 149.206 471.315 168.342 471.315 168.342Z" fill="#1D2366"/>
<path d="M447.614 176.315C447.614 176.315 446.403 178.851 443.97 178.441C441.538 178.03 441.543 187.57 441.543 187.57C441.543 187.57 439.926 189.092 438.811 187.773C437.696 186.454 434.757 190.912 434.757 190.912L416.341 191.724C416.341 191.724 424.536 195.472 422.929 206.813C422.929 206.813 450.751 205.088 451.663 202.456C452.575 199.824 447.614 176.315 447.614 176.315Z" fill="white"/>
<path opacity="0.03" d="M447.614 176.315C447.614 176.315 446.403 178.851 443.97 178.441C441.538 178.03 441.543 187.57 441.543 187.57C441.543 187.57 439.926 189.092 438.811 187.773C437.696 186.454 434.757 190.912 434.757 190.912L416.341 191.724C416.341 191.724 424.536 195.472 422.929 206.813C422.929 206.813 450.751 205.088 451.663 202.456C452.575 199.824 447.614 176.315 447.614 176.315Z" fill="black"/>
<path d="M394.094 197.683L398.949 201.832L438.913 210.236L433.956 205.175L394.094 197.683Z" fill="white"/>
<path d="M462.893 151.407C462.229 152.422 460.329 157.615 458.742 162.149C457.42 165.928 456.315 169.25 456.315 169.25C456.315 169.25 453.736 186.059 452.418 189.097C451.1 192.135 451.815 203.983 451.815 203.983L446.904 233.243C446.904 233.243 444.68 248.332 441.244 257.345C437.853 266.215 434.078 270.374 433.961 270.506C435.482 268.447 443.767 227.902 443.767 227.902L446.504 176.767C446.504 176.767 446.904 171.908 447.31 167.754C447.715 163.6 455.925 157.93 455.925 157.93L463.841 146.665C464.636 147.73 464.104 149.586 462.893 151.407Z" fill="white"/>
<path d="M442.252 217.124C442.252 217.124 430.597 216.617 424.951 209.831C419.306 203.044 438.001 207.122 438.001 207.122L442.86 208.238L442.252 217.124Z" fill="#FFB0B1"/>
<path opacity="0.1" d="M496.684 294.791C496.06 297.001 495.96 299.326 496.39 301.582C483.676 302.485 470.074 299.046 470.074 299.046C467.54 301.379 460.866 304.818 460.866 304.818L457.227 259.678C454.901 253.591 453.989 221.704 453.989 221.704C453.989 221.704 454.197 220.035 454.496 217.535C454.496 217.474 454.496 217.408 454.521 217.347C455.428 210.363 457.227 197.252 458.109 195.482C459.325 193.048 454.369 186.571 454.369 186.571L456.624 167.323L456.898 165C461.651 162.875 465.295 156.089 465.295 156.089L468.092 151.184C471.133 149.231 471.29 168.368 471.29 168.368L468.249 213.553L478.324 210.769C478.324 210.769 498.402 289.019 496.684 294.791Z" fill="black"/>
<path d="M509.734 297.91C495.873 304.797 470.682 298.417 470.682 298.417C468.148 300.75 461.474 304.189 461.474 304.189L457.83 259.049C455.509 252.962 454.597 221.075 454.597 221.075C454.597 221.075 457.526 197.283 458.743 194.853C459.097 194.143 458.925 193.088 458.504 191.952C456.436 186.545 455.676 180.724 456.285 174.966L457.258 166.694L457.526 164.376C462.285 162.246 465.929 155.46 465.929 155.46L468.462 151.017L473.125 142.831L475.334 138.956L475.709 139.295L478.572 141.892C478.572 141.892 479.789 142.907 481.613 144.428C485.581 147.776 492.438 153.669 495.975 157.275C499.086 160.45 500.07 172.801 500.353 182.097C500.541 188.219 500.429 193.017 500.429 193.017C497.292 198.186 505.497 239.679 505.497 239.679C507.408 247.698 509.734 297.91 509.734 297.91Z" fill="white"/>
<path opacity="0.03" d="M483.128 155.358C483.128 155.358 473.616 173.48 474.721 180.368C475.826 187.256 478.968 195.051 477.452 196.872C476.932 197.562 476.259 198.122 475.486 198.508C474.713 198.894 473.862 199.096 472.998 199.098C471.478 199.2 467.424 202.035 467.424 202.339C467.424 202.644 463.678 202.644 460.329 204.064C456.979 205.484 452.033 206.29 452.033 206.29C452.033 206.29 442.404 205.986 441.507 206.899C440.61 207.812 439.688 213.275 441.609 217.631C443.529 221.988 445.663 225.239 447.274 225.833C448.886 226.426 459.113 222.997 467.408 222.186C475.704 221.374 484.709 214.796 484.709 214.796C484.709 214.796 494.627 211.246 496.365 205.276C498.103 199.306 494.242 166.496 494.242 166.496C494.242 166.496 491.323 151.204 483.128 155.358Z" fill="black"/>
<path opacity="0.03" d="M481.912 153.837C481.912 153.837 472.4 171.964 473.515 178.846C474.63 185.729 477.761 193.53 476.241 195.355C475.722 196.046 475.051 196.607 474.278 196.993C473.506 197.379 472.655 197.581 471.792 197.582C470.271 197.683 466.217 200.519 466.217 200.823C466.217 201.127 462.472 201.127 459.123 202.542C455.773 203.957 450.827 204.769 450.827 204.769C450.827 204.769 441.198 204.465 440.306 205.378C439.414 206.29 438.482 211.758 440.408 216.11C442.333 220.461 444.462 223.718 446.073 224.311C447.685 224.904 457.911 221.476 466.207 220.669C474.503 219.863 483.508 213.275 483.508 213.275C483.508 213.275 493.421 209.724 495.139 203.76C496.857 197.795 493.015 164.975 493.015 164.975C493.015 164.975 490.106 149.688 481.912 153.837Z" fill="black"/>
<path d="M482.829 154.445C482.829 154.445 473.317 172.572 474.432 179.455C475.547 186.338 478.679 194.138 477.164 195.959C476.645 196.651 475.972 197.213 475.199 197.6C474.426 197.988 473.574 198.19 472.709 198.191C471.189 198.292 467.135 201.127 467.135 201.426C467.135 201.726 463.395 201.731 460.04 203.151C456.685 204.571 451.744 205.378 451.744 205.378C451.744 205.378 442.116 205.073 441.219 205.986C440.322 206.899 439.399 212.367 441.32 216.718C443.241 221.07 445.374 224.326 446.986 224.92C448.597 225.513 458.824 222.084 467.119 221.273C475.415 220.461 484.421 213.883 484.421 213.883C484.421 213.883 494.338 210.333 496.076 204.363C497.814 198.393 493.978 165.583 493.978 165.583C493.978 165.583 491.019 150.317 482.829 154.445Z" fill="white"/>
<path opacity="0.1" d="M482.621 203.065C482.621 203.065 475.02 201.543 477.665 204.079C480.311 206.615 480.295 208.837 483.534 208.735C486.772 208.634 482.621 203.065 482.621 203.065Z" fill="black"/>
<path opacity="0.1" d="M495.468 257.629C495.468 257.629 492.032 259.957 498.605 265.323C505.178 270.689 495.468 257.629 495.468 257.629Z" fill="black"/>
<path opacity="0.1" d="M488.911 276.765C488.911 277.069 487.694 287.923 492.245 290.637C496.796 293.35 488.911 276.765 488.911 276.765Z" fill="black"/>
<path d="M416.655 191.699C412.986 191.825 405.06 192.946 409.17 200.62C412.804 207.411 418.91 202.872 422.346 199.428C421.508 196.217 419.471 193.451 416.655 191.699Z" fill="#FFB0B1"/>
<path opacity="0.1" d="M481.613 144.738C477.721 147.4 474.457 149.647 473.819 150.114C472.075 151.407 468.751 159 466.607 162.875C464.9 165.994 459.351 166.795 457.258 166.993L457.526 164.675C462.285 162.545 465.928 155.759 465.928 155.759L475.334 139.255L478.572 142.202C478.572 142.202 479.789 143.216 481.613 144.738Z" fill="black"/>
<path d="M481.613 144.433C477.721 147.096 474.457 149.343 473.819 149.815C472.075 151.103 468.751 158.696 466.607 162.57C464.9 165.69 459.351 166.491 457.258 166.689L457.526 164.371C462.285 162.241 465.928 155.455 465.928 155.455L475.334 138.951L478.572 141.887C478.572 141.887 479.789 142.891 481.613 144.433Z" fill="#DCE7FF"/>
<path d="M474.123 131.51C474.125 134.555 473.203 137.528 471.478 140.036C469.441 143.001 466.409 145.137 462.933 146.057C459.456 146.976 455.766 146.618 452.531 145.047C449.296 143.476 446.731 140.797 445.301 137.495C443.871 134.193 443.671 130.488 444.738 127.051C445.804 123.615 448.066 120.674 451.113 118.764C454.16 116.854 457.79 116.1 461.345 116.639C464.9 117.179 468.144 118.976 470.489 121.704C472.833 124.432 474.122 127.911 474.123 131.51Z" fill="#FFB0B1"/>
<path opacity="0.1" d="M500.353 182.102C498.295 180.835 496.619 179.033 495.503 176.889C494.657 175.215 494.095 173.282 492.65 172.096C491.348 171.03 489.61 170.772 487.988 170.295C482.657 168.718 478.187 163.849 478.02 158.29C477.939 155.673 478.755 153.061 478.385 150.469C478.174 149.002 477.592 147.614 476.692 146.437C476.246 145.874 475.756 145.346 475.228 144.859C474.518 144.19 473.773 143.541 473.125 142.831C472.716 142.391 472.359 141.906 472.06 141.385C471.819 140.959 471.624 140.508 471.478 140.041C470.464 136.937 471.386 133.255 470.271 130.115L470.211 129.943C469.79 128.827 468.934 127.711 467.743 127.625C466.552 127.539 465.533 128.528 464.398 128.969C462.021 129.892 459.457 128.32 457.475 126.717C455.494 125.114 453.259 123.283 450.741 123.638C449.073 123.877 447.756 125.013 446.22 125.601C445.873 125.736 445.516 125.839 445.151 125.911C446.45 122.667 448.838 119.978 451.903 118.305C454.969 116.632 458.52 116.079 461.949 116.742C465.377 117.406 468.467 119.243 470.689 121.939C472.91 124.635 474.125 128.021 474.123 131.515C474.125 132.57 474.014 133.623 473.793 134.655C473.819 134.726 473.844 134.792 473.875 134.863C474.462 136.384 475.126 137.946 475.709 139.295L478.572 141.892C478.572 141.892 479.789 142.907 481.613 144.428C485.581 147.776 492.437 153.669 495.975 157.275C499.086 160.461 500.059 172.806 500.353 182.102Z" fill="black"/>
<path d="M446.043 116.335C446.767 114.859 447.127 113.205 447.994 111.806C449.266 109.777 451.485 108.478 453.766 107.692C459.72 105.638 472.304 102.656 476.064 107.692C476.804 108.707 477.417 109.833 478.441 110.532C479.221 111.065 480.163 111.293 481.02 111.694C483.417 112.82 484.947 115.275 485.763 117.78C486.579 120.286 486.822 122.974 487.42 125.556C488.186 128.868 489.529 132.007 490.866 135.126C492.443 138.808 494.115 142.628 497.155 145.23C501.306 148.78 502.223 153.806 506.075 157.701C510.636 162.327 510.489 169.96 508.137 176.021C507.828 176.818 507.478 177.649 507.6 178.496C507.722 179.343 508.35 180.114 508.943 180.789L511.436 183.604C505.537 185.029 498.863 181.945 496.117 176.533C495.27 174.86 494.708 172.932 493.258 171.741C491.961 170.675 490.218 170.422 488.601 169.945C483.27 168.363 478.8 163.488 478.633 157.93C478.552 155.318 479.368 152.706 478.998 150.119C478.792 148.642 478.207 147.244 477.3 146.061C475.907 144.241 473.804 143.018 472.668 140.989C470.748 137.596 472.207 133.189 470.824 129.547C470.398 128.431 469.547 127.316 468.356 127.229C467.165 127.143 466.146 128.132 465.006 128.573C462.634 129.496 460.07 127.929 458.089 126.321C456.107 124.714 453.872 122.888 451.349 123.248C449.681 123.481 448.369 124.617 446.833 125.211C445.698 125.647 443.397 126.037 442.404 125.079C440.306 123.146 445.166 118.14 446.043 116.335Z" fill="#591D4B"/>
<path opacity="0.1" d="M497.526 174.86C496.674 173.186 496.117 171.259 494.667 170.072C493.37 169.007 491.627 168.748 490.005 168.271C484.679 166.694 480.209 161.82 480.037 156.261C479.956 153.649 480.772 151.032 480.407 148.445C480.195 146.978 479.61 145.59 478.709 144.413C477.311 142.592 475.207 141.37 474.077 139.341C472.157 135.953 473.616 131.545 472.228 127.899C471.807 126.788 470.951 125.672 469.765 125.581C468.579 125.49 467.55 126.489 466.415 126.93C464.043 127.853 461.474 126.281 459.498 124.678C457.521 123.075 455.276 121.244 452.758 121.599C451.09 121.838 449.773 122.974 448.242 123.562C447.107 123.998 444.801 124.394 443.808 123.435C441.72 121.407 446.58 116.411 447.452 114.615C448.176 113.134 448.536 111.486 449.408 110.086C449.453 110.01 449.504 109.934 449.555 109.858C448.903 110.399 448.34 111.039 447.888 111.755C447.021 113.155 446.661 114.798 445.936 116.284C445.06 118.08 440.2 123.091 442.293 125.104C443.306 126.068 445.587 125.672 446.722 125.236C448.242 124.643 449.57 123.506 451.237 123.273C453.771 122.913 456.001 124.744 457.977 126.347C459.954 127.949 462.538 129.522 464.9 128.599C466.035 128.157 467.028 127.163 468.244 127.255C469.461 127.346 470.272 128.457 470.712 129.573C472.096 133.214 470.636 137.622 472.557 141.015C473.692 143.008 475.795 144.256 477.189 146.087C478.096 147.27 478.681 148.668 478.887 150.144C479.257 152.731 478.441 155.343 478.522 157.955C478.689 163.534 483.159 168.388 488.49 169.97C490.096 170.447 491.85 170.701 493.147 171.766C494.601 172.958 495.174 174.885 496.005 176.559C498.752 181.971 505.426 185.054 511.325 183.629L510.149 182.3C505.036 182.376 499.862 179.465 497.526 174.86Z" fill="black"/>
<path opacity="0.1" d="M462.589 151.711C461.925 152.726 460.024 157.919 458.438 162.454C456.953 161.876 455.605 158.188 455.605 158.188L463.521 146.918C464.332 148.034 463.8 149.886 462.589 151.711Z" fill="black"/>
<path d="M462.893 151.407C462.229 152.422 460.329 157.615 458.742 162.149C457.258 161.576 455.91 157.884 455.91 157.884L463.825 146.619C464.636 147.73 464.104 149.586 462.893 151.407Z" fill="#DCE7FF"/>
<path d="M416.868 203.222L412.479 189.371C412.427 189.208 412.408 189.038 412.422 188.868C412.436 188.698 412.484 188.533 412.562 188.382C412.64 188.23 412.748 188.096 412.878 187.986C413.008 187.877 413.158 187.794 413.321 187.742C413.647 187.64 414.001 187.672 414.305 187.829C414.608 187.987 414.838 188.258 414.942 188.584L419.331 202.421L418.895 205.317L416.868 203.222Z" fill="#BE8B87"/>
<path opacity="0.1" d="M412.895 188.153C413.222 188.05 413.577 188.08 413.882 188.238C414.187 188.396 414.417 188.668 414.522 188.995L418.91 202.831L418.581 205.002L418.9 205.337L419.336 202.441L414.922 188.605C414.817 188.279 414.588 188.007 414.284 187.85C413.981 187.692 413.627 187.661 413.3 187.763C413.026 187.852 412.788 188.03 412.626 188.27C412.713 188.224 412.802 188.185 412.895 188.153Z" fill="white"/>
<path d="M416.868 203.222L419.331 202.441L418.971 204.815L418.895 205.337L418.176 204.586L416.868 203.222Z" fill="#EFC8C4"/>
<path d="M418.176 204.586C418.218 204.532 418.272 204.487 418.333 204.454C418.368 204.432 418.41 204.42 418.452 204.42C418.494 204.42 418.535 204.432 418.571 204.454C418.605 204.496 418.634 204.542 418.657 204.591C418.69 204.647 418.736 204.695 418.79 204.731C418.845 204.767 418.907 204.79 418.971 204.799L418.895 205.307L418.176 204.586Z" fill="#727A9C"/>
<path d="M412.454 194.29C412.454 194.29 421.257 194.24 419.184 197.988C417.111 201.736 413.873 202.187 413.873 202.187L412.454 194.29Z" fill="#FFB0B1"/>
<path d="M357.708 26.0798H357.328C342.206 26.0798 328.832 34.0884 321.14 45.906C313.447 34.0884 300.073 26.0798 284.951 26.0798H284.571C273.222 26.1881 262.375 30.7744 254.386 38.8422C246.397 46.91 241.912 57.8072 241.906 69.1659C241.906 83.2709 248.079 103.285 260.114 119.753C283.046 151.133 321.14 178.588 321.14 178.588C321.14 178.588 359.233 151.138 382.16 119.753C394.2 103.285 400.368 83.2709 400.368 69.1659C400.362 57.8081 395.878 46.9116 387.89 38.844C379.902 30.7763 369.056 26.1894 357.708 26.0798ZM352.27 122.168C350.548 122.161 348.868 121.633 347.451 120.654C346.034 119.675 344.946 118.289 344.329 116.68H335.289C334.693 116.676 334.114 116.486 333.631 116.137C333.149 115.788 332.788 115.297 332.598 114.732L329.821 106.358L321.033 137.089C320.862 137.681 320.504 138.201 320.012 138.571C319.521 138.942 318.922 139.142 318.307 139.143H318.129C317.487 139.112 316.875 138.862 316.396 138.433C315.916 138.005 315.598 137.425 315.494 136.79L306.438 82.2768L299.82 114.534C299.668 115.147 299.316 115.691 298.819 116.08C298.322 116.469 297.709 116.68 297.078 116.68H284.343C283.961 116.696 283.58 116.635 283.223 116.499C282.865 116.364 282.539 116.158 282.263 115.894C281.987 115.629 281.768 115.311 281.618 114.96C281.468 114.608 281.39 114.229 281.39 113.847C281.39 113.465 281.468 113.086 281.618 112.734C281.768 112.383 281.987 112.065 282.263 111.8C282.539 111.536 282.865 111.33 283.223 111.195C283.58 111.059 283.961 110.998 284.343 111.014H294.848L304.224 67.6443C304.378 67.0031 304.749 66.4353 305.275 66.038C305.801 65.6406 306.448 65.4385 307.107 65.466C307.765 65.4936 308.393 65.7491 308.884 66.189C309.375 66.6289 309.698 67.2258 309.798 67.8776L319.047 123.486L326.922 95.9913C327.086 95.4122 327.432 94.9018 327.91 94.5361C328.388 94.1705 328.971 93.9693 329.572 93.9625H329.628C330.224 93.9627 330.804 94.1511 331.286 94.5008C331.768 94.8506 332.128 95.3438 332.314 95.9101L337.336 111.03H344.218C344.707 109.542 345.598 108.218 346.791 107.205C347.984 106.192 349.434 105.528 350.981 105.288C352.527 105.047 354.11 105.239 355.554 105.842C356.999 106.444 358.249 107.435 359.166 108.704C360.084 109.973 360.633 111.471 360.754 113.032C360.874 114.594 360.561 116.159 359.85 117.554C359.138 118.949 358.055 120.119 356.72 120.937C355.385 121.755 353.851 122.188 352.286 122.188L352.27 122.168Z" fill="#4FA1C5"/>
</g>
<defs>
<linearGradient id="paint0_linear_900_2336" x1="180.577" y1="393.008" x2="180.577" y2="80.9124" gradientUnits="userSpaceOnUse">
<stop stop-color="#808080" stop-opacity="0.25"/>
<stop offset="0.54" stop-color="#808080" stop-opacity="0.12"/>
<stop offset="1" stop-color="#808080" stop-opacity="0.1"/>
</linearGradient>
<linearGradient id="paint1_linear_900_2336" x1="452.763" y1="389.062" x2="452.763" y2="104.02" gradientUnits="userSpaceOnUse">
<stop stop-color="#808080" stop-opacity="0.25"/>
<stop offset="0.54" stop-color="#808080" stop-opacity="0.12"/>
<stop offset="1" stop-color="#808080" stop-opacity="0.1"/>
</linearGradient>
<clipPath id="clip0_900_2336">
<rect width="560" height="397" fill="white"/>
</clipPath>
</defs>
</svg>
