<svg width="40" height="40" viewBox="0 0 40 40" fill="none" xmlns="http://www.w3.org/2000/svg">
<path d="M29.9999 21.6633H21.6666V29.9966C21.6666 30.4387 21.491 30.8626 21.1784 31.1751C20.8659 31.4877 20.4419 31.6633 19.9999 31.6633C19.5579 31.6633 19.134 31.4877 18.8214 31.1751C18.5088 30.8626 18.3333 30.4387 18.3333 29.9966V21.6633H9.99992C9.55789 21.6633 9.13397 21.4877 8.82141 21.1751C8.50885 20.8626 8.33325 20.4387 8.33325 19.9966C8.33325 19.5546 8.50885 19.1307 8.82141 18.8181C9.13397 18.5056 9.55789 18.33 9.99992 18.33H18.3333V9.99662C18.3333 9.5546 18.5088 9.13067 18.8214 8.81811C19.134 8.50555 19.5579 8.32996 19.9999 8.32996C20.4419 8.32996 20.8659 8.50555 21.1784 8.81811C21.491 9.13067 21.6666 9.5546 21.6666 9.99662V18.33H29.9999C30.4419 18.33 30.8659 18.5056 31.1784 18.8181C31.491 19.1307 31.6666 19.5546 31.6666 19.9966C31.6666 20.4387 31.491 20.8626 31.1784 21.1751C30.8659 21.4877 30.4419 21.6633 29.9999 21.6633Z" fill="#5E8C6A"/>
</svg>
