<svg width="25" height="24" viewBox="0 0 25 24" fill="none" xmlns="http://www.w3.org/2000/svg">
<path d="M15.1599 2C15.6919 2 16.202 2.21071 16.5782 2.58579C16.9544 2.96086 17.1657 3.46957 17.1657 4V9H19.1715C19.7035 9 20.2137 9.21071 20.5898 9.58579C20.966 9.96086 21.1773 10.4696 21.1773 11V20.9C21.1773 21.0445 21.1488 21.1875 21.0934 21.321C21.0379 21.4544 20.9566 21.5757 20.8542 21.6778C20.7518 21.78 20.6301 21.861 20.4963 21.9163C20.3625 21.9715 20.219 22 20.0741 22H4.2282C4.08332 22 3.93987 21.9715 3.80602 21.9163C3.67218 21.861 3.55056 21.78 3.44812 21.6778C3.34568 21.5757 3.26442 21.4544 3.20898 21.321C3.15354 21.1875 3.125 21.0445 3.125 20.9V4C3.125 3.46957 3.33633 2.96086 3.71249 2.58579C4.08865 2.21071 4.59884 2 5.13081 2H15.1599ZM15.1599 4H5.13081V20H7.13663V17C7.13663 16.2044 7.45362 15.4413 8.01786 14.8787C8.58211 14.3161 9.34739 14 10.1453 14C10.9433 14 11.7086 14.3161 12.2728 14.8787C12.8371 15.4413 13.1541 16.2044 13.1541 17V20H15.1599V4ZM19.1715 11H17.1657V20H19.1715V11ZM10.1453 16C9.8997 16 9.66261 16.09 9.47905 16.2527C9.29548 16.4155 9.1782 16.6397 9.14946 16.883L9.14244 17V20H11.1483V17C11.1483 16.7348 11.0426 16.4804 10.8545 16.2929C10.6664 16.1054 10.4113 16 10.1453 16ZM10.1453 6C10.4113 6 10.6664 6.10536 10.8545 6.29289C11.0426 6.48043 11.1483 6.73478 11.1483 7V8H12.1512C12.4172 8 12.6722 8.10536 12.8603 8.29289C13.0484 8.48043 13.1541 8.73478 13.1541 9C13.1541 9.26522 13.0484 9.51957 12.8603 9.70711C12.6722 9.89464 12.4172 10 12.1512 10H11.1483V11C11.1483 11.2652 11.0426 11.5196 10.8545 11.7071C10.6664 11.8946 10.4113 12 10.1453 12C9.87936 12 9.62427 11.8946 9.43619 11.7071C9.24811 11.5196 9.14244 11.2652 9.14244 11V10H8.13953C7.87355 10 7.61845 9.89464 7.43037 9.70711C7.24229 9.51957 7.13663 9.26522 7.13663 9C7.13663 8.73478 7.24229 8.48043 7.43037 8.29289C7.61845 8.10536 7.87355 8 8.13953 8H9.14244V7C9.14244 6.73478 9.24811 6.48043 9.43619 6.29289C9.62427 6.10536 9.87936 6 10.1453 6Z" fill="white"/>
</svg>
