<svg width="25" height="24" viewBox="0 0 25 24" fill="none" xmlns="http://www.w3.org/2000/svg">
<path d="M5.13092 13.18V15.99C5.13092 16.72 5.53208 17.4 6.17394 17.75L11.1885 20.48C11.7902 20.81 12.5123 20.81 13.1141 20.48L18.1286 17.75C18.7705 17.4 19.1716 16.72 19.1716 15.99V13.18L13.1141 16.48C12.5123 16.81 11.7902 16.81 11.1885 16.48L5.13092 13.18ZM11.1885 3.52003L2.73397 8.12003C2.04196 8.50003 2.04196 9.50003 2.73397 9.88003L11.1885 14.48C11.7902 14.81 12.5123 14.81 13.1141 14.48L21.1774 10.09V16C21.1774 16.55 21.6287 17 22.1803 17C22.7319 17 23.1832 16.55 23.1832 16V9.59003C23.1832 9.22003 22.9827 8.89003 22.6617 8.71003L13.1141 3.52003C12.8177 3.36245 12.4871 3.28003 12.1513 3.28003C11.8154 3.28003 11.4848 3.36245 11.1885 3.52003Z" fill="white"/>
</svg>
