<svg width="41" height="40" viewBox="0 0 41 40" fill="none" xmlns="http://www.w3.org/2000/svg">
<path d="M30.8896 21.6633H22.532V29.9966C22.532 30.4387 22.3559 30.8626 22.0424 31.1751C21.729 31.4877 21.3038 31.6633 20.8605 31.6633C20.4172 31.6633 19.992 31.4877 19.6786 31.1751C19.3651 30.8626 19.189 30.4387 19.189 29.9966V21.6633H10.8314C10.3881 21.6633 9.96296 21.4877 9.64949 21.1751C9.33602 20.8626 9.15991 20.4387 9.15991 19.9966C9.15991 19.5546 9.33602 19.1307 9.64949 18.8181C9.96296 18.5056 10.3881 18.33 10.8314 18.33H19.189V9.99662C19.189 9.5546 19.3651 9.13067 19.6786 8.81811C19.992 8.50555 20.4172 8.32996 20.8605 8.32996C21.3038 8.32996 21.729 8.50555 22.0424 8.81811C22.3559 9.13067 22.532 9.5546 22.532 9.99662V18.33H30.8896C31.3329 18.33 31.758 18.5056 32.0715 18.8181C32.385 19.1307 32.5611 19.5546 32.5611 19.9966C32.5611 20.4387 32.385 20.8626 32.0715 21.1751C31.758 21.4877 31.3329 21.6633 30.8896 21.6633Z" fill="#5E8C6A"/>
</svg>
