<svg width="93" height="93" viewBox="0 0 93 93" fill="none" xmlns="http://www.w3.org/2000/svg">
<path fill-rule="evenodd" clip-rule="evenodd" d="M34.7277 71.5675C23.3236 62.8293 7.75 48.395 7.75 34.7472C7.75 11.9467 29.0625 3.43333 46.5 21.0413C63.9375 3.43333 85.25 11.9467 85.25 34.7433C85.25 48.395 69.6725 62.8293 58.2723 71.5675C53.1108 75.52 50.53 77.5001 46.5 77.5001C42.47 77.5001 39.8892 75.5238 34.7277 71.5675ZM63.9375 24.2188C64.7083 24.2188 65.4475 24.525 65.9925 25.0701C66.5376 25.6151 66.8438 26.3543 66.8438 27.1251V31.9688H71.6875C72.4583 31.9688 73.1975 32.275 73.7425 32.8201C74.2876 33.3651 74.5938 34.1043 74.5938 34.8751C74.5938 35.6459 74.2876 36.3851 73.7425 36.9301C73.1975 37.4751 72.4583 37.7813 71.6875 37.7813H66.8438V42.6251C66.8438 43.3959 66.5376 44.1351 65.9925 44.6801C65.4475 45.2251 64.7083 45.5313 63.9375 45.5313C63.1667 45.5313 62.4275 45.2251 61.8825 44.6801C61.3374 44.1351 61.0312 43.3959 61.0312 42.6251V37.7813H56.1875C55.4167 37.7813 54.6775 37.4751 54.1325 36.9301C53.5874 36.3851 53.2812 35.6459 53.2812 34.8751C53.2812 34.1043 53.5874 33.3651 54.1325 32.8201C54.6775 32.275 55.4167 31.9688 56.1875 31.9688H61.0312V27.1251C61.0312 26.3543 61.3374 25.6151 61.8825 25.0701C62.4275 24.525 63.1667 24.2188 63.9375 24.2188Z" fill="#88B193"/>
</svg>
